<svg version="1" xmlns="http://www.w3.org/2000/svg" width="933.333" height="933.333" viewBox="0 0 700.000000 700.000000"><path d="M317.5 29.5c-17 8.5-47 23.2-66.5 32.9-19.5 9.6-54.2 26.6-77 37.9l-41.5 20.4-2.5 4.9c-1.4 2.6-4.1 7.7-6.1 11.3-2 3.7-6.1 11.3-9.1 17.1-3.1 5.8-6.9 13-8.5 16-1.7 3-5.8 10.9-9.3 17.5-3.5 6.6-6.6 12.4-7 13-.4.5-2.9 5.3-5.5 10.5-2.7 5.2-5.7 10.7-6.7 12.2-1 1.4-1.8 3.2-1.8 3.9 0 .7-.6 2-1.4 2.8-.7.9-4.5 7.7-8.3 15.1-3.9 7.4-8.2 15.5-9.5 18-1.4 2.5-4.9 9-7.8 14.5-2.9 5.5-6.7 12.7-8.5 16-1.8 3.3-5.4 10-8 15-2.6 4.9-6.5 12.1-8.5 16-3.6 6.7-6.6 12.3-16.8 31.5-2.4 4.7-4.8 8.9-5.2 9.5-2.9 4.1-3.3 4 28.7 4 16.8-.1 30.7.3 31 .8.3.5.6 71.8.7 158.6l.1 157.6H348c157 .1 286.5-.1 287.6-.3l2.2-.4V529.2c0-86.2.1-157.4.1-158.2.1-1.3 4.2-1.5 31-1.5 32.4 0 31.9.1 29.1-4-.4-.6-3.1-5.5-6-11s-6.8-12.9-8.8-16.5c-7.2-13.5-15.3-28.6-24.7-46.5-2.6-5-6-11.3-7.5-14-1.5-2.8-5.1-9.5-8-15-5.9-11.2-10.2-19.2-20-37.5-3.7-6.9-9.8-18.4-13.5-25.5-3.7-7.2-7.1-13.5-7.5-14-.4-.6-3.3-6-6.5-12-3.2-6.1-7.2-13.7-9-17-4.1-7.6-10.7-20-15.4-28.9l-3.6-6.9-40.5-20c-22.3-11-52.2-25.7-66.5-32.7-14.3-7-44.8-22.1-67.9-33.4-23-11.3-42.3-20.6-43-20.5-.6 0-15 7-32.1 15.4z"/></svg>