<svg id="Layer_1" data-name="Layer 1" xmlns="http://www.w3.org/2000/svg" viewBox="0 0 733.56 455.09">
  <defs>
    <style>
      .cls-1{fill:#e8e8e8}.cls-2{opacity:.05}.cls-2,.cls-5{isolation:isolate}.cls-3{fill:#a4a8ab}.cls-4{fill:#4a5058}.cls-5{opacity:.1}.cls-8{fill:none;stroke:#1d1d1b;stroke-miterlimit:10}.cls-9{fill:#030104}
    </style>
  </defs>
  <circle class="cls-1" cx="35.02" cy="216.89" r="30.28"/>
  <path class="cls-2" d="M43.1 240.47a30.27 30.27 0 0 1-23-49.93 30.28 30.28 0 1 0 38 46 30.19 30.19 0 0 1-15 3.93z" transform="translate(0 .02)"/>
  <path class="cls-3" d="M274 455.06h-35.76a6.54 6.54 0 0 1-6.54-6.53v-75h48.8v75a6.54 6.54 0 0 1-6.5 6.53z" transform="translate(0 .02)"/>
  <path class="cls-4" d="M231.7 434.18h48.8v14.35a6.54 6.54 0 0 1-6.54 6.54h-35.72a6.54 6.54 0 0 1-6.54-6.54z" transform="translate(0 .02)"/>
  <path class="cls-1" d="M337 286.91a35.71 35.71 0 0 0-15.41-29.38 37.37 37.37 0 0 0 .57-6.34 35.74 35.74 0 0 0-34.71-35.73 35.78 35.78 0 0 0-43.3-26.18l-1 .25a35.73 35.73 0 0 0-48.55-6.08 35.73 35.73 0 0 0-50.5-1.78c-.61.57-1.21 1.17-1.78 1.78a35.73 35.73 0 0 0-48.55 6.08 35.78 35.78 0 0 0-44 25l-.24.91a35.72 35.72 0 0 0-34.7 36.73 36.08 36.08 0 0 0 .56 5.39 35.74 35.74 0 0 0-9.09 49.73c.39.57.8 1.13 1.22 1.67a35.74 35.74 0 0 0 17.69 56.16v1.57A35.76 35.76 0 0 0 61 402.38a21.94 21.94 0 0 0 2.81-.12A35.8 35.8 0 0 0 118.13 417a35.75 35.75 0 0 0 50.38 2.51 35.76 35.76 0 0 0 50.42-2.48 35.79 35.79 0 0 0 54.31-14.76q1.39.12 2.82.12a35.76 35.76 0 0 0 35.76-35.76v-1.57a35.76 35.76 0 0 0 17.68-56.16 35.52 35.52 0 0 0 7.5-22z" transform="translate(0 .02)"/>
  <path class="cls-2" d="M337 286.91a35.71 35.71 0 0 0-15.41-29.38 37.37 37.37 0 0 0 .57-6.34 35.74 35.74 0 0 0-34.71-35.73 35.78 35.78 0 0 0-43.3-26.18l-1 .25a35.73 35.73 0 0 0-48.55-6.08 35.73 35.73 0 0 0-50.5-1.78c-.61.57-1.21 1.17-1.78 1.78a35.73 35.73 0 0 0-48.55 6.08 35.77 35.77 0 0 0-33.07 7.56 30.46 30.46 0 0 0 40.56 30.17 45 45 0 0 0 26.21 39.6 45 45 0 0 0 42.72 41.2 45 45 0 0 0 51.84 22.47 45 45 0 0 0 57.93-.7 45 45 0 0 0 57 1.44v-.36a35.59 35.59 0 0 0-7.56-22 35.58 35.58 0 0 0 7.6-22z" transform="translate(0 .02)"/>
  <path class="cls-3" d="M88.48 156.3c17.67-10.3 34.52-22.52 49.67-37.77l.13-.14a8.95 8.95 0 0 1 15.18 7.75c-3.74 22.76-11.33 45.65-21.17 67.56l-.64 1.41a30.47 30.47 0 1 1-43.17-38.79z" transform="translate(0 .02)"/>
  <path class="cls-5" d="M150.93 118.32a8.94 8.94 0 0 0-12.64 0l-.13.14a233.32 233.32 0 0 1-43.41 34 45.06 45.06 0 0 0 13.67 44.63A44.83 44.83 0 0 0 102 213a30.48 30.48 0 0 0 29.68-17.92l.63-1.41c9.85-21.91 17.44-44.8 21.18-67.56a9 9 0 0 0-2.56-7.79z" transform="translate(0 .02)"/>
  <path class="cls-3" d="M496.91 156.3c-17.68-10.35-34.53-22.52-49.67-37.79l-.14-.14a8.94 8.94 0 0 0-12.64-.06 9 9 0 0 0-2.53 7.8c3.75 22.76 11.33 45.65 21.18 67.56l.64 1.41a30.47 30.47 0 1 0 43.17-38.79z" transform="translate(0 .02)"/>
  <path class="cls-1" d="M479.18 151.88a45 45 0 0 0-20.12-37.51 45 45 0 0 0-36.39-62.6 45 45 0 0 0-62.6-30.88A45 45 0 0 0 298 7a46 46 0 0 0-5.28 3.92 45 45 0 0 0-67.37 10 45 45 0 0 0-62.61 30.88 45 45 0 0 0-36.39 62.6 45 45 0 0 0-5.07 71.09 45 45 0 0 0 18.95 65.46 45 45 0 0 0 42.72 41.2 45 45 0 0 0 51.84 22.41 45 45 0 0 0 57.93-.7 45 45 0 0 0 57.93.7 45 45 0 0 0 51.84-22.41 45 45 0 0 0 42.72-41.2 45 45 0 0 0 22.2-59.64 44.46 44.46 0 0 0-3.2-5.82 44.9 44.9 0 0 0 15-33.58z" transform="translate(0 .02)"/>
  <path class="cls-3" d="M364.36 140.17l-31.11 7.73a168.6 168.6 0 0 1-40.56 5 169.1 169.1 0 0 1-40.56-5L221 140.17c-19.4-4.82-37.73 12.07-37.73 34.76 0 21.24 16.17 37.74 34.63 35.35A35.56 35.56 0 0 1 250.5 224c6.86 8.83 16.86 14.4 28 14.4h28.33c11.14 0 21.15-5.57 28-14.4a35.59 35.59 0 0 1 32.61-13.76c18.46 2.39 34.63-14.11 34.63-35.35 0-22.69-18.3-39.58-37.71-34.76z" transform="translate(0 .02)"/>
  <path class="cls-4" d="M233.58 191.64a8.19 8.19 0 0 1-8.19-8.19v-12.2a8.2 8.2 0 0 1 16.39 0v12.2a8.21 8.21 0 0 1-8.2 8.19zm118.22 0a8.19 8.19 0 0 1-8.19-8.19v-12.2a8.2 8.2 0 0 1 16.39 0v12.2a8.21 8.21 0 0 1-8.2 8.19zm-45.43 23.49a21.75 21.75 0 0 1-13.68-4.81 21.86 21.86 0 0 1-35.54-17.06 8.2 8.2 0 0 1 16.39 0 5.5 5.5 0 0 0 11 0 8.2 8.2 0 0 1 16.39 0 5.5 5.5 0 0 0 11 0 8.2 8.2 0 0 1 16.39 0 21.89 21.89 0 0 1-21.91 21.87z" transform="translate(0 .02)"/>
  <path class="cls-4" d="M306.11 184.74l-3.11 3.72a13.45 13.45 0 0 1-18.95 1.65 12.86 12.86 0 0 1-1.65-1.65l-3.12-3.72a3 3 0 0 1 .53-4.21 2.93 2.93 0 0 1 1.73-.63h22.33a2.94 2.94 0 0 1 2.24 4.84z" transform="translate(0 .02)"/>
  <path class="cls-3" d="M98.35 455.06H62.62a6.54 6.54 0 0 1-6.54-6.53v-75h48.8v75a6.53 6.53 0 0 1-6.53 6.53zm101.71 0h-35.72a6.54 6.54 0 0 1-6.54-6.53v-75h48.8v75a6.54 6.54 0 0 1-6.54 6.53z" transform="translate(0 .02)"/>
  <path class="cls-5" d="M104.36 349a28.44 28.44 0 0 0-21 9.26 28.48 28.48 0 0 0-40.82 39A35.4 35.4 0 0 0 56.11 402v5.29a28.48 28.48 0 0 0 30.45-7.65 28.49 28.49 0 1 0 17.82-50.72z" transform="translate(0 .02)"/>
  <path class="cls-1" d="M106.21 333.33a31.11 31.11 0 0 0-23 10.13 31.2 31.2 0 1 0 3.5 45.4 31.2 31.2 0 1 0 19.52-55.53z" transform="translate(0 .02)"/>
  <path class="cls-5" d="M206.27 349.46a28.3 28.3 0 0 0-21 9.24 28.43 28.43 0 1 0 3.19 41.36 28.42 28.42 0 1 0 17.77-50.6z" transform="translate(0 .02)"/>
  <path class="cls-1" d="M208.17 333.33a31.11 31.11 0 0 0-23 10.13 31.2 31.2 0 1 0 3.5 45.4 31.2 31.2 0 1 0 19.52-55.53z" transform="translate(0 .02)"/>
  <path class="cls-4" d="M56.08 434.18h48.8v14.35a6.54 6.54 0 0 1-6.53 6.54H62.62a6.54 6.54 0 0 1-6.54-6.54zm101.72 0h48.8v14.35a6.54 6.54 0 0 1-6.54 6.54h-35.72a6.54 6.54 0 0 1-6.54-6.54v-14.35z" transform="translate(0 .02)"/>
  <g id="_Группа_" data-name="Группа">
    <path d="M630 272.42a105 105 0 0 1-34.8-6c14.13-8.79 14.13-9.49 14.13-11.6a4.22 4.22 0 0 0-1.72-3.16 3.41 3.41 0 0 0-4.48 1.05c-2.07 1.41-10 7-17.23 11.6a125.38 125.38 0 0 1-25.15 11.24c-8.62 2.83-16.54 4.59-22.4 6 7.58-13 10.72-31.63 11.72-46.38a6.61 6.61 0 0 0-.69-2.46 81.77 81.77 0 0 1-15.85-48.14c0-48.49 43.4-87.84 96.47-87.84s96.48 39.35 96.48 87.84-43.38 87.84-96.48 87.85z" transform="translate(0 .02)" fill="#fff"/>
    <path d="M595.18 266.41a105 105 0 0 0 34.8 6c53.12 0 96.53-39.35 96.53-87.84S683.09 96.75 630 96.75s-96.47 39.35-96.47 87.84a81.77 81.77 0 0 0 15.85 48.14 5.17 5.17 0 0 1 .69 2.46c-1 14.75-4.14 33.38-11.72 46.38a180.89 180.89 0 0 0 22.4-6 125.38 125.38 0 0 0 25.15-11.24 183.37 183.37 0 0 0 17.23-11.6 3.41 3.41 0 0 1 4.48-1 3.71 3.71 0 0 1 1.72 3.16c.03 2.11.03 2.76-14.15 11.52zm-52-30.54a86.49 86.49 0 0 1-16.54-51.3c0-52.35 46.45-94.87 103.36-94.87s103.39 42.52 103.39 94.87-46.53 94.87-103.39 94.87a112.31 112.31 0 0 1-42-8.08c-23.43 13.7-55.82 18.64-57.2 18.64h-.34a3.55 3.55 0 0 1-3.1-1.76 3.74 3.74 0 0 1 .69-4.21c7.58-8.11 13.09-25.32 15.11-48.16z" transform="translate(0 .02)" fill="#1d1d1b"/>
    <path class="cls-8" d="M630.07 89.7c-56.85 0-103.36 42.52-103.36 94.87a86.49 86.49 0 0 0 16.54 51.3c-2.07 22.84-7.58 40.05-15.51 48.14a3.76 3.76 0 0 0-.69 4.21 3.6 3.6 0 0 0 3.1 1.76h.35c1.38-.35 33.76-4.92 57.19-18.62a108.17 108.17 0 0 0 42 8.08c56.85 0 103.37-42.52 103.37-94.87S686.92 89.7 630.07 89.7z" transform="translate(0 .02)"/>
    <path class="cls-8" d="M630 272.42a105 105 0 0 1-34.8-6c14.13-8.79 14.13-9.49 14.13-11.6a4.22 4.22 0 0 0-1.72-3.16 3.41 3.41 0 0 0-4.48 1.05c-2.07 1.41-10 7-17.23 11.6a125.38 125.38 0 0 1-25.15 11.24c-8.62 2.83-16.54 4.59-22.4 6 7.58-13 10.72-31.63 11.72-46.38a6.61 6.61 0 0 0-.69-2.46 81.77 81.77 0 0 1-15.85-48.14c0-48.49 43.4-87.84 96.47-87.84s96.48 39.35 96.48 87.84-43.38 87.84-96.48 87.85z" transform="translate(0 .02)"/>
  </g>
  <g id="c75_volume" data-name="c75 volume">
    <path class="cls-9" d="M589 159.62h-17.54V200h17.92l33.76 25.3s6.2 5.27 6.2 0v-91.68c0-4.22-5.51 0-5.51 0zm59-8.08l-.08-.07a4.57 4.57 0 0 0-6.47.07 4.81 4.81 0 0 0 0 6.68 31 31 0 0 1 0 42.86 5 5 0 0 0 0 6.68 4.2 4.2 0 0 0 3.11 1.41 3.76 3.76 0 0 0 3.1-1.41A40.13 40.13 0 0 0 659 179.65a38.28 38.28 0 0 0-11-28.11z" transform="translate(0 .02)"/>
    <path class="cls-9" d="M660.32 137.14l-.11-.11a4.55 4.55 0 0 0-6.43.11 4.78 4.78 0 0 0 0 6.67A53.24 53.24 0 0 1 668.59 180a50.74 50.74 0 0 1-14.81 36.19 5 5 0 0 0 0 6.68 4.12 4.12 0 0 0 3.1 1.4 3.72 3.72 0 0 0 3.1-1.4A60.73 60.73 0 0 0 677.24 180a59.17 59.17 0 0 0-16.92-42.86z" transform="translate(0 .02)"/>
    <path class="cls-9" d="M675.53 122l-.11-.1a4.55 4.55 0 0 0-6.44.1 4.78 4.78 0 0 0 0 6.67 73.13 73.13 0 0 1 0 101.9 4.91 4.91 0 0 0 0 6.67 4.14 4.14 0 0 0 3.09 1.41 3.73 3.73 0 0 0 3.1-1.41 83 83 0 0 0 .36-115.24z" transform="translate(0 .02)"/>
  </g>
</svg>
