<svg id="Слой_1" data-name="Слой 1" xmlns="http://www.w3.org/2000/svg" viewBox="0 0 212.21 235.02">
  <defs>
    <style>
      .cls-1{stroke:#000;stroke-miterlimit:10}
    </style>
  </defs>
  <ellipse class="cls-1" cx="69.31" cy="209.82" rx="39.5" ry="24.7"/>
  <ellipse class="cls-1" cx="171.71" cy="180.72" rx="39.8" ry="23.2"/>
  <path class="cls-1" d="M106.7 234.4a12 12 0 0 1-12-12V110.7a12 12 0 0 1 12-12 12 12 0 0 1 12 12v111.7a12 12 0 0 1-12 12zM209.6 205.3a12 12 0 0 1-12-12V81.6a12 12 0 0 1 12-12 12 12 0 0 1 12 12v111.7a12 12 0 0 1-12 12z" transform="translate(-9.89 -14.58)"/>
  <path class="cls-1" d="M211 103.7l-98.5 24.8a12.07 12.07 0 0 1-14.6-8.7l-2.6-10.2A12.07 12.07 0 0 1 104 95l98.5-24.8a12.07 12.07 0 0 1 14.6 8.7l2.6 10.2a12.12 12.12 0 0 1-8.7 14.6z" transform="translate(-9.89 -14.58)"/>
  <path class="cls-1" d="M124.2 25.42z"/>
  <path d="M107.41 17.62c.4-6 .6-9 .9-15-57.7-11.1-99.9 19.4-107.9 77.4 5.8 1.6 8.7 2.4 14.5 3.9 7.5-49.9 42.8-75.3 92.5-66.3z" stroke-width=".73" stroke="#000" stroke-miterlimit="10"/>
  <path stroke-width=".7" stroke="#000" stroke-miterlimit="10" d="M108.81 11.12z"/>
  <path d="M110.41 43.92c-.2-5.2-.2-7.8-.4-13-47.7-13.5-79.4 9.4-81.9 58.7 4.9 1.8 7.3 2.7 12.2 4.6 2.7-42.6 28.8-61.4 70.1-50.3z" stroke-width=".61" stroke="#000" stroke-miterlimit="10"/>
  <path d="M112.01 67.52c-.4-4-.5-6-.9-10-35.8-11.8-57 3.3-57.4 41.1 3.7 1.6 5.5 2.4 9.2 4.1.7-32.7 17.9-45 49.1-35.2z" stroke-width=".46" stroke="#000" stroke-miterlimit="10"/>
</svg>
