<svg id="Layer_1" data-name="Layer 1" xmlns="http://www.w3.org/2000/svg" viewBox="0 0 607.16 511.76">
  <defs>
    <style>
      .cls-1{fill:#f4b759}.cls-2{opacity:.1}.cls-2,.cls-4{isolation:isolate}.cls-3{fill:#e8e8e8}.cls-4{opacity:.05}.cls-8{fill:none;stroke:#1d1d1b;stroke-miterlimit:10}.cls-9{fill:#030104}
    </style>
  </defs>
  <path class="cls-1" d="M235 478.57h-32v-42.08a16.72 16.72 0 0 0-33.43 0v42.08h-9.17a16.72 16.72 0 0 0-.82 33.43H235a16.72 16.72 0 0 0 0-33.43z" transform="translate(.04 -.25)"/>
  <path class="cls-2" d="M235 478.57h-32v-42.08a16.72 16.72 0 0 0-33.43 0v42.08h-9.17a16.72 16.72 0 0 0-.82 33.43H235a16.72 16.72 0 0 0 0-33.43z" transform="translate(.04 -.25)"/>
  <path class="cls-2" d="M186.33 419.78a16.72 16.72 0 0 0-16.72 16.71v31.24h1.47a112.57 112.57 0 0 0 32-4.61V436.5a16.71 16.71 0 0 0-16.7-16.72z" transform="translate(.04 -.25)"/>
  <path class="cls-1" d="M157.52 478.57h-31.88v-42.08a16.72 16.72 0 0 0-33.43 0v42.08H83a16.72 16.72 0 0 0-.78 33.43h75.3a16.72 16.72 0 0 0 0-33.43z" transform="translate(.04 -.25)"/>
  <path class="cls-2" d="M109 419.78a16.72 16.72 0 0 0-16.72 16.71v28.27a118.94 118.94 0 0 0 26.45 3h7v-31.27A16.71 16.71 0 0 0 109 419.78z" transform="translate(.04 -.25)"/>
  <path class="cls-3" d="M171.08 455.75h-52.42A118.67 118.67 0 0 1 0 337.13V311a18.08 18.08 0 0 1 27.82-15.23l20.25 13a32.54 32.54 0 0 0 26.83 3.75A333.08 333.08 0 0 1 254 309l29.63 7.67v26.5a112.54 112.54 0 0 1-112.55 112.58z" transform="translate(.04 -.25)"/>
  <path class="cls-4" d="M254 309a333 333 0 0 0-179.1 3.4c-1 .29-2 .53-3 .73 29.7 22.91 70.82 36.92 119.7 36.92 35.13 0 66.26-7.24 92-19.82v-13.52z" transform="translate(.04 -.25)"/>
  <path class="cls-3" d="M188.26 92.34a19.5 19.5 0 0 1-19.5-19.5c0-28.89 21.72-57.1 43.17-70a19.51 19.51 0 0 1 20.14 33.41c-12.95 7.75-24.31 24.88-24.31 36.59a19.5 19.5 0 0 1-19.5 19.5z" transform="translate(.04 -.25)"/>
  <path class="cls-3" d="M368 197c0 76.43-68.55 138.39-171.34 138.39S25.24 273.41 25.24 197 93.79 58.6 196.58 58.6 368 120.54 368 197z" transform="translate(.04 -.25)"/>
  <path d="M171.3 179.89a8.16 8.16 0 0 1-8.17-8.15 6.5 6.5 0 0 0-13 0 8.17 8.17 0 0 1-16.33 0 22.83 22.83 0 0 1 45.65-1v1a8.17 8.17 0 0 1-8.15 8.15zm171.24 0a8.16 8.16 0 0 1-8.16-8.16 6.5 6.5 0 0 0-13 0 8.16 8.16 0 1 1-16.32 0 22.83 22.83 0 0 1 45.65-1v1a8.16 8.16 0 0 1-8.16 8.16z" transform="translate(.04 -.25)" fill="#4a5058"/>
  <path class="cls-1" d="M168.45 221.3c0 32.91 45.3 56.75 91 47.88 33-6.39 57.79-24.57 65.79-47-45.78 0-156.79-.88-156.79-.88z" transform="translate(.04 -.25)"/>
  <path class="cls-2" d="M168.45 221.3c0 32.91 45.3 56.75 91 47.88 33-6.39 57.79-24.57 65.79-47-45.78 0-156.79-.88-156.79-.88z" transform="translate(.04 -.25)"/>
  <path class="cls-1" d="M341.65 212.6h-7.57l-45.2-44.38a61.92 61.92 0 0 0-87.17.4L171 199.37c-13.11 13.11-3.82 35.52 14.71 35.52h156a11.15 11.15 0 0 0 0-22.29z" transform="translate(.04 -.25)"/>
  <path class="cls-2" d="M224.69 191.85a8.16 8.16 0 0 1-6.09-13.59l5.45-6.13a8.17 8.17 0 1 1 12.2 10.87l-5.45 6.13a8.14 8.14 0 0 1-6.11 2.72z" transform="translate(.04 -.25)"/>
  <path class="cls-4" d="M122.71 415l-47.17-8.69A30.85 30.85 0 0 1 50.28 376a18.87 18.87 0 0 1 16.89-18.76l58-6.09a32.3 32.3 0 0 1 35.49 28.75 31.7 31.7 0 0 1 .18 3.37A32.3 32.3 0 0 1 122.71 415z" transform="translate(.04 -.25)"/>
  <g id="_Группа_" data-name="Группа">
    <path d="M503.59 293.14a105 105 0 0 1-34.8-6c14.13-8.79 14.13-9.49 14.13-11.6a4.19 4.19 0 0 0-1.72-3.16 3.41 3.41 0 0 0-4.48 1.05c-2.07 1.41-10 7-17.23 11.6a125.38 125.38 0 0 1-25.15 11.24c-8.62 2.83-16.54 4.59-22.4 6 7.58-13 10.72-31.63 11.72-46.38a6.61 6.61 0 0 0-.69-2.46 81.77 81.77 0 0 1-15.85-48.14c0-48.49 43.4-87.84 96.47-87.84s96.48 39.35 96.48 87.84-43.41 87.84-96.48 87.85z" transform="translate(.04 -.25)" fill="#fff"/>
    <path d="M468.74 287.13a105 105 0 0 0 34.8 6c53.12 0 96.53-39.35 96.53-87.84s-43.42-87.82-96.48-87.82-96.47 39.35-96.47 87.84A81.77 81.77 0 0 0 423 253.45a5.17 5.17 0 0 1 .69 2.46c-1 14.75-4.14 33.38-11.72 46.38a180.42 180.42 0 0 0 22.4-6 125.38 125.38 0 0 0 25.15-11.24 183.37 183.37 0 0 0 17.23-11.6 3.41 3.41 0 0 1 4.48-1.05 3.71 3.71 0 0 1 1.72 3.16c-.03 2.11-.03 2.81-14.21 11.57zm-52-30.54a86.56 86.56 0 0 1-16.54-51.3c0-52.35 46.45-94.87 103.36-94.87s103.39 42.52 103.39 94.87-46.51 94.87-103.37 94.87a112.31 112.31 0 0 1-42-8.08c-23.43 13.7-55.82 18.62-57.2 18.62H404a3.55 3.55 0 0 1-3.1-1.76 3.74 3.74 0 0 1 .69-4.21c7.6-8.09 13.11-25.3 15.13-48.14z" transform="translate(.04 -.25)" fill="#1d1d1b"/>
    <path class="cls-8" d="M503.63 110.42c-56.85 0-103.36 42.52-103.36 94.87a86.56 86.56 0 0 0 16.54 51.3c-2.07 22.84-7.58 40.05-15.51 48.14a3.76 3.76 0 0 0-.69 4.21 3.6 3.6 0 0 0 3.1 1.76h.35c1.38-.35 33.76-4.92 57.19-18.62a108.17 108.17 0 0 0 42 8.08c56.85 0 103.37-42.52 103.37-94.87s-46.14-94.87-102.99-94.87z" transform="translate(.04 -.25)"/>
    <path class="cls-8" d="M503.59 293.14a105 105 0 0 1-34.8-6c14.13-8.79 14.13-9.49 14.13-11.6a4.19 4.19 0 0 0-1.72-3.16 3.41 3.41 0 0 0-4.48 1.05c-2.07 1.41-10 7-17.23 11.6a125.38 125.38 0 0 1-25.15 11.24c-8.62 2.83-16.54 4.59-22.4 6 7.58-13 10.72-31.63 11.72-46.38a6.61 6.61 0 0 0-.69-2.46 81.77 81.77 0 0 1-15.85-48.14c0-48.49 43.4-87.84 96.47-87.84s96.48 39.35 96.48 87.84-43.41 87.84-96.48 87.85z" transform="translate(.04 -.25)"/>
  </g>
  <g id="c75_volume" data-name="c75 volume">
    <path class="cls-9" d="M462.54 180.34H445v40.41h17.92l33.76 25.3s6.2 5.27 6.2 0v-91.71c0-4.22-5.51 0-5.51 0zm59-8.08l-.08-.07a4.57 4.57 0 0 0-6.47.07 4.81 4.81 0 0 0 0 6.68 31 31 0 0 1 0 42.86 5 5 0 0 0 0 6.68 4.2 4.2 0 0 0 3.11 1.41 3.76 3.76 0 0 0 3.1-1.41 40.13 40.13 0 0 0 11.37-28.11 38.28 38.28 0 0 0-11.06-28.11z" transform="translate(.04 -.25)"/>
    <path class="cls-9" d="M533.88 157.86l-.11-.11a4.55 4.55 0 0 0-6.43.11 4.78 4.78 0 0 0 0 6.67 53.24 53.24 0 0 1 14.81 36.19 50.74 50.74 0 0 1-14.81 36.19 5 5 0 0 0 0 6.68 4.12 4.12 0 0 0 3.1 1.4 3.72 3.72 0 0 0 3.1-1.4 60.73 60.73 0 0 0 17.26-42.87 59.17 59.17 0 0 0-16.92-42.86z" transform="translate(.04 -.25)"/>
    <path class="cls-9" d="M549.09 142.76a.94.94 0 0 1-.1-.1 4.56 4.56 0 0 0-6.45.1 4.78 4.78 0 0 0 0 6.67 73.13 73.13 0 0 1 0 101.9 4.91 4.91 0 0 0 0 6.67 4.14 4.14 0 0 0 3.09 1.41 3.73 3.73 0 0 0 3.1-1.41 83 83 0 0 0 .36-115.24z" transform="translate(.04 -.25)"/>
  </g>
</svg>
