<?xml version="1.0" encoding="utf-8"?>
<!-- Generator: Adobe Illustrator 22.0.0, SVG Export Plug-In . SVG Version: 6.00 Build 0)  -->
<svg version="1.1" id="Layer_1" xmlns="http://www.w3.org/2000/svg" xmlns:xlink="http://www.w3.org/1999/xlink" x="0px" y="0px"
	 viewBox="0 0 607.2 511.8" style="enable-background:new 0 0 607.2 511.8;" xml:space="preserve">
<style type="text/css">
	.st0{fill:#F4B759;}
	.st1{opacity:0.1;enable-background:new    ;}
	.st2{fill:#E8E8E8;}
	.st3{opacity:5.000000e-02;enable-background:new    ;}
	.st4{fill:#4A5058;}
</style>
<title>duck-chat</title>
<path class="st0" d="M235,478.3h-32v-42.1c-0.2-9.2-7.9-16.5-17.1-16.3c-8.9,0.2-16.1,7.4-16.3,16.3v42.1h-9.2
	c-9.2-0.2-16.9,7.1-17.1,16.3s7.1,16.9,16.3,17.1H235c9.2-0.2,16.5-7.9,16.3-17.1C251.1,485.7,244,478.5,235,478.3z"/>
<path class="st1" d="M235,478.3h-32v-42.1c-0.2-9.2-7.9-16.5-17.1-16.3c-8.9,0.2-16.1,7.4-16.3,16.3v42.1h-9.2
	c-9.2-0.2-16.9,7.1-17.1,16.3s7.1,16.9,16.3,17.1H235c9.2-0.2,16.5-7.9,16.3-17.1C251.1,485.7,244,478.5,235,478.3z"/>
<path class="st1" d="M186.4,419.5c-9.2,0-16.7,7.5-16.7,16.7v31.2h1.5c10.8,0,21.6-1.5,32-4.6v-26.6
	C203.1,427,195.6,419.5,186.4,419.5L186.4,419.5L186.4,419.5z"/>
<path class="st0" d="M157.6,478.3h-31.9v-42.1c-0.2-9.2-7.9-16.5-17.1-16.3c-8.9,0.2-16.1,7.4-16.3,16.3v42.1H83
	c-9.2-0.1-16.8,7.2-17,16.5c-0.1,9.1,7.1,16.7,16.2,17h75.3c9.2-0.2,16.5-7.9,16.3-17.1C173.6,485.7,166.5,478.5,157.6,478.3z"/>
<path class="st1" d="M109,419.5c-9.2,0-16.7,7.5-16.7,16.7v28.3c8.7,2,17.5,3,26.4,3h7v-31.3C125.8,427,118.3,419.5,109,419.5
	C109.1,419.5,109,419.5,109,419.5z"/>
<path class="st2" d="M171.1,455.5h-52.4C53.2,455.5,0.1,402.4,0,336.9v-26.1c0-10,8.1-18.1,18.1-18.1c3.5,0,6.8,1,9.7,2.8l20.3,13
	c8,5.1,17.8,6.5,26.8,3.8c58.3-17.5,120.2-18.7,179.1-3.5l29.6,7.7v26.5C283.7,405.1,233.3,455.5,171.1,455.5
	C171.2,455.5,171.1,455.5,171.1,455.5z"/>
<path class="st3" d="M254,308.8c-58.9-15.2-120.8-14.1-179.1,3.4c-1,0.3-2,0.5-3,0.7c29.7,22.9,70.8,36.9,119.7,36.9
	c35.1,0,66.3-7.2,92-19.8v-13.5L254,308.8z"/>
<path class="st2" d="M188.3,92.1c-10.8,0-19.5-8.7-19.5-19.5c0-28.9,21.7-57.1,43.2-70c9.3-5.4,21.3-2.1,26.6,7.2
	c5.2,9.1,2.3,20.6-6.5,26.2c-12.9,7.8-24.3,24.9-24.3,36.6C207.8,83.4,199.1,92.1,188.3,92.1z"/>
<path class="st2" d="M368,196.8c0,76.4-68.5,138.4-171.3,138.4s-171.4-62-171.4-138.4S93.8,58.3,196.6,58.3S368,120.3,368,196.8z"/>
<path class="st4" d="M171.3,179.6c-4.5,0-8.2-3.6-8.2-8.1l0,0l0,0c0-3.6-2.9-6.5-6.5-6.5s-6.5,2.9-6.5,6.5c-0.2,4.5-3.9,8-8.5,7.9
	c-4.3-0.2-7.7-3.6-7.9-7.9c-0.3-12.6,9.7-23,22.3-23.3c12.6-0.3,23,9.7,23.3,22.3c0,0.3,0,0.7,0,1
	C179.5,176,175.8,179.6,171.3,179.6z M342.6,179.6c-4.5,0-8.2-3.7-8.2-8.2c0,0,0,0,0,0l0,0c0-3.6-2.9-6.5-6.5-6.5s-6.5,2.9-6.5,6.5
	c0,4.5-3.7,8.2-8.2,8.2s-8.2-3.7-8.2-8.2c-0.3-12.6,9.7-23,22.3-23.3c12.6-0.3,23,9.7,23.3,22.3c0,0.3,0,0.7,0,1
	C350.8,176,347.1,179.6,342.6,179.6L342.6,179.6L342.6,179.6z"/>
<path class="st0" d="M168.5,221.1c0,32.9,45.3,56.7,91,47.9c33-6.4,57.8-24.6,65.8-47C279.5,221.9,168.5,221,168.5,221.1
	L168.5,221.1z"/>
<path class="st1" d="M168.5,221.1c0,32.9,45.3,56.7,91,47.9c33-6.4,57.8-24.6,65.8-47C279.5,221.9,168.5,221,168.5,221.1
	L168.5,221.1z"/>
<path class="st0" d="M341.7,212.4h-7.6L288.9,168c-24.2-23.8-63.1-23.6-87.2,0.4L171,199.1c-13.1,13.1-3.8,35.5,14.7,35.5h156
	c6.2-0.2,11-5.3,10.8-11.5C352.4,217.3,347.6,212.5,341.7,212.4L341.7,212.4z"/>
<path class="st1" d="M224.7,191.6c-4.5,0-8.2-3.7-8.2-8.2c0-2,0.7-3.9,2.1-5.4l5.4-6.1c3-3.4,8.2-3.7,11.5-0.7
	c3.4,3,3.7,8.2,0.7,11.5l0,0l-5.4,6.1C229.3,190.6,227.1,191.6,224.7,191.6z"/>
<path class="st3" d="M122.8,414.8l-47.2-8.7c-14.6-2.7-25.2-15.4-25.3-30.3c0-9.7,7.3-17.7,16.9-18.8l58-6.1
	c17.7-1.9,33.6,11,35.5,28.8c0.1,1.1,0.2,2.2,0.2,3.4c0,17.8-14.5,32.3-32.3,32.3C126.6,415.3,124.7,415.1,122.8,414.8z"/>
</svg>
