<?xml version="1.0" encoding="utf-8"?>
<!-- Generator: Adobe Illustrator 22.0.0, SVG Export Plug-In . SVG Version: 6.00 Build 0)  -->
<svg version="1.1" id="Layer_1" xmlns="http://www.w3.org/2000/svg" xmlns:xlink="http://www.w3.org/1999/xlink" x="0px" y="0px"
	 viewBox="0 0 730.1 412.1" style="enable-background:new 0 0 730.1 412.1;" xml:space="preserve">
<style type="text/css">
	.st0{fill:#BCAC77;}
	.st1{opacity:5.000000e-02;enable-background:new    ;}
	.st2{fill:#6E614F;}
	.st3{fill:#7D7060;}
	.st4{fill:#EDBCB9;}
	.st5{opacity:0.15;enable-background:new    ;}
	.st6{opacity:0.1;enable-background:new    ;}
	.st7{fill:#4A5058;}
	.st8{fill:#FFFFFF;}
	.st9{fill:#1D1D1B;}
	.st10{fill:none;stroke:#1D1D1B;stroke-miterlimit:10;}
	.st11{fill:#030104;}
</style>
<path class="st0" d="M681.1,362.1h-0.8c0,0,0,0-0.1,0c-9.3-0.2-16.7-8-16.4-17.3c0.2-9.3,8-16.7,17.3-16.4c6.6,0,11.5-1.1,13.1-3
	c0.8-0.9,2.1-3.6,2.1-10.9v-0.8c0,0,0,0,0,0c0.2-9.3,8-16.7,17.3-16.4c9.3,0.2,16.7,8,16.4,17.3c0,13.9-3.2,24.6-9.9,32.5
	C711.7,357,698.6,362,681.1,362.1L681.1,362.1z"/>
<path class="st1" d="M681.1,328.3h-0.8c0,0,0,0-0.1,0c-9.3,0.2-16.7,8-16.4,17.3s8,16.7,17.3,16.4c12.7,0,23-2.7,31-8
	c-1.8-17-6.1-33.7-12.7-49.5c-2.1,2.9-3.2,6.3-3.2,9.9c0,7.3-1.3,10-2.1,10.9C692.6,327.2,687.7,328.4,681.1,328.3L681.1,328.3z"/>
<path class="st2" d="M414.4,370.6c0,5.8-4.7,10.4-10.4,10.5c-8.6,0-15.5,6.9-15.5,15.5c0,0,0,0,0,0c0,8.6,7,15.5,15.5,15.5h31.1
	c12.6,0,22.9-10.3,22.9-22.9v-42.5c0-12-9.8-21.8-21.8-21.8c-12,0-21.8,9.8-21.8,21.8V370.6L414.4,370.6z"/>
<path class="st0" d="M502.6,398C502.5,398,502.5,398,502.6,398c-58.4,0-105.6-47.3-105.6-105.6v-95.7H525c0,0,0,0,0,0
	c97.2,0,175.9,78.8,175.9,176c0,0,0,0,0,0c0,14-11.4,25.3-25.4,25.3H502.6L502.6,398z"/>
<path class="st1" d="M397,196.7v95.7c0,16.9,4,33.5,11.8,48.5c5.6,0.5,11.4,0.8,17.2,0.8c42,0,80.3-13.6,109.3-35.9
	c5.7-4.4,12.5-7.4,19.6-8.5c36.2-5.6,63.7-35.5,66.3-72c-28.6-18.7-62-28.6-96.1-28.6H397z"/>
<path class="st3" d="M601.5,278.9c-21,27.2-16,66.3,11.2,87.4s66.3,16,87.4-11.2c-3.7-37.3-19.2-72.4-44.3-100.2
	c-1.7-0.1-3.3-0.2-5-0.2C631.5,254.7,613.3,263.6,601.5,278.9z"/>
<path class="st2" d="M615.4,373.5c0,0.3,0,0.5,0,0.8l0,0c0,3.8-3,6.8-6.8,6.8h-7.6c-13.4,0-24.3,10.9-24.4,24.3c0,0,0,0,0,0
	c0,3.7,3,6.7,6.7,6.7h95.2c3.8,0,7.5-0.6,11.1-1.8c18-6.1,27.7-25.7,21.5-43.8c-10.6-31.1-39.9-52.1-72.7-52c-0.9,0-1.9,0-2.8,0.1
	c-14.5,1.5-25,14.5-23.5,29L615.4,373.5L615.4,373.5z M503.1,370.6C503.1,370.6,503.1,370.6,503.1,370.6c0,5.8-4.7,10.5-10.4,10.5
	c-8.6,0-15.5,6.9-15.5,15.5c0,8.6,7,15.5,15.5,15.5h31.1c12.6,0,22.9-10.3,22.9-22.9v-42.5c0-12-9.8-21.8-21.8-21.8
	c-12,0-21.8,9.8-21.8,21.8V370.6L503.1,370.6z"/>
<ellipse class="st0" cx="413.4" cy="187.7" rx="164.1" ry="141.3"/>
<path class="st4" d="M378.8,267.1V221h69.1v46.1c0,19.1-15.5,34.5-34.6,34.5C394.3,301.7,378.8,286.2,378.8,267.1L378.8,267.1z"/>
<path class="st5" d="M413.3,272C413.3,272,413.3,272,413.3,272c-4.5,0-8.2-3.7-8.1-8.2v-38.3c0-4.5,3.7-8.2,8.2-8.2
	c4.5,0,8.2,3.7,8.2,8.2v38.3C421.5,268.4,417.9,272,413.3,272L413.3,272z"/>
<path class="st6" d="M249.9,175.6c-0.4,4-0.6,8.1-0.6,12.1c0,49.8,29.9,93.5,75.1,118.7c28.5-6,54.3-21.2,73.4-43.2
	c0.6-0.7,1.2-1.3,1.9-1.9c8.6-7.6,21.8-6.7,29.4,1.9c19.1,22,44.9,37.2,73.4,43.2c45.2-25.2,75.1-68.9,75.1-118.7
	c0-4.1-0.2-8.1-0.6-12.1l-0.1-0.1c-0.1-1.1-0.2-2.2-0.3-3.3c-9-70.8-78.6-125.8-163.1-125.8s-154.1,55-163.1,125.8
	C250.2,173.3,250.1,174.4,249.9,175.6L249.9,175.6L249.9,175.6z"/>
<path class="st0" d="M218,206.9c0,43.4,35.2,78.7,78.7,78.7c38.8,0,75.7-16.8,101.1-46.1c0.6-0.7,1.2-1.3,1.9-1.9
	c8.6-7.6,21.8-6.7,29.3,1.9c25.4,29.3,62.3,46.1,101.1,46.1c43.5,0,78.7-35.2,78.7-78.7c0-22.8-12.2-43.8-32-55.1
	c-5.9-81-70.4-145.4-151.4-151.4C335.1-6.2,256.6,61.6,250,151.8C230.2,163.1,218,184.1,218,206.9z"/>
<path class="st3" d="M433.7,5.2c-0.2,0.2-0.5,0.5-0.7,0.7c-40.3,39.7-40.8,104.6-1.1,144.9s104.6,40.8,144.9,1.1
	C571.1,75.3,513.2,13,437.4,1.7C436.1,2.8,434.9,4,433.7,5.2z"/>
<path class="st6" d="M499.1,24.2c-6.1,8.7-6.9,20-2.3,29.5l27,56c8.6,17.9,27.4,28.6,47.2,26.8c1.3-0.1,2.6-0.3,3.8-0.5
	C566.8,89.5,539.2,48.8,499.1,24.2L499.1,24.2z"/>
<path class="st2" d="M575.1,121.5c-18.7,4-38-4-48.3-20.2l-32.3-50.6c-1.8-2.9-3.1-6-3.8-9.3c-3.3-15.4,6.5-30.5,21.8-33.8
	c30.6-6.6,62.1,6.6,79,33L602,57.1c2.7,4.3,4.7,9,5.7,14C612.7,94,598,116.6,575.1,121.5L575.1,121.5z M299.9,101.3l32.3-50.6
	c1.8-2.9,3.1-6,3.8-9.3c3.3-15.4-6.5-30.5-21.8-33.8c-30.6-6.6-62.1,6.6-79,33l-10.5,16.5c-2.7,4.3-4.7,9-5.7,14
	c-4.9,22.9,9.7,45.5,32.6,50.4C270.3,125.5,289.6,117.4,299.9,101.3z"/>
<path class="st7" d="M380.5,192.2c-1.1-1.3-1.7-2.9-1.7-4.6c0-4,3.2-7.2,7.2-7.2h54.6c1.7,0,3.3,0.6,4.6,1.7c3,2.6,3.4,7.1,0.9,10.2
	l-7.6,9.1c-1.2,1.4-2.6,2.8-4,4c-13.9,11.7-34.7,9.9-46.4-4L380.5,192.2L380.5,192.2z M485.5,119.6c-4.5,0-8.2,3.7-8.2,8.2V140
	c0,0.2,0,0.4,0,0.6c0.2,4.5,3.9,8,8.4,7.9c4.5-0.1,8.1-3.9,7.9-8.4v-12.2C493.7,123.3,490,119.6,485.5,119.6L485.5,119.6z
	 M341.2,119.6L341.2,119.6c-4.5,0-8.2,3.7-8.2,8.2V140c0,4.5,3.7,8.2,8.2,8.2c4.5,0,8.2-3.7,8.2-8.2v-12.2l0,0
	C349.4,123.3,345.8,119.6,341.2,119.6L341.2,119.6z"/>
<g id="_Группа_">
	<path class="st8" d="M103.4,249.5c-53.1,0-96.5-39.4-96.5-87.9s43.4-87.8,96.5-87.8s96.5,39.3,96.5,87.8
		c-0.1,17.3-5.6,34.2-15.8,48.1c-0.4,0.8-0.6,1.6-0.7,2.5c1,14.8,4.1,33.4,11.7,46.4c-5.9-1.4-13.8-3.2-22.4-6
		c-8.8-2.8-17.2-6.6-25.2-11.2c-7.2-4.6-15.2-10.2-17.2-11.6c-1-1.5-2.9-1.9-4.5-1.1c-1,0.7-1.7,1.9-1.7,3.2c0,2.1,0,2.8,14.1,11.6
		C127,247.4,115.2,249.4,103.4,249.5L103.4,249.5z"/>
	<path class="st9" d="M138.2,243.4C124,234.7,124,234,124,231.9c0-1.3,0.6-2.5,1.7-3.2c1.5-0.9,3.5-0.4,4.5,1.1
		c5.5,4.2,11.3,8.1,17.2,11.6c7.9,4.7,16.4,8.4,25.2,11.2c7.3,2.5,14.8,4.5,22.4,6c-7.6-13-10.7-31.6-11.7-46.4
		c0-0.9,0.3-1.7,0.7-2.5c10.2-14,15.8-30.8,15.9-48.1c0-48.5-43.4-87.8-96.5-87.8S6.9,113.1,6.9,161.6s43.4,87.8,96.5,87.8
		C115.3,249.4,127,247.4,138.2,243.4L138.2,243.4z M190.2,212.9c2,22.8,7.5,40.1,15.1,48.1c1.1,1.1,1.4,2.8,0.7,4.2
		c-0.6,1.1-1.8,1.8-3.1,1.8h-0.4c-1.4,0-33.8-4.9-57.2-18.6c-13.4,5.4-27.6,8.1-42,8.1C46.5,256.5,0,214,0,161.6
		s46.5-94.9,103.4-94.9s103.4,42.5,103.4,94.9C206.8,180,201,198,190.2,212.9L190.2,212.9z"/>
	<path class="st10" d="M103.3,66.7c-56.8,0-103,42.5-103,94.9s46.5,94.9,103.4,94.9c14.4,0.1,28.7-2.6,42-8.1
		c23.4,13.7,55.8,18.3,57.2,18.6h0.3c1.3,0,2.5-0.7,3.1-1.8c0.7-1.4,0.4-3.1-0.7-4.2c-7.9-8.1-13.4-25.3-15.5-48.1
		c10.8-14.9,16.6-32.9,16.5-51.3C206.7,109.2,160.2,66.7,103.3,66.7L103.3,66.7z"/>
	<path class="st10" d="M103.4,249.5c-53.1,0-96.5-39.4-96.5-87.9s43.4-87.8,96.5-87.8s96.5,39.3,96.5,87.8
		c-0.1,17.3-5.6,34.2-15.8,48.1c-0.4,0.8-0.6,1.6-0.7,2.5c1,14.8,4.1,33.4,11.7,46.4c-5.9-1.4-13.8-3.2-22.4-6
		c-8.8-2.8-17.2-6.6-25.2-11.2c-7.2-4.6-15.2-10.2-17.2-11.6c-1-1.5-2.9-1.9-4.5-1.1c-1,0.7-1.7,1.9-1.7,3.2c0,2.1,0,2.8,14.1,11.6
		C127,247.4,115.2,249.4,103.4,249.5L103.4,249.5z"/>
</g>
<g id="c75_volume">
	<path class="st11" d="M109.5,110.7c0,0-5.5-4.2-5.5,0v91.7c0,5.3,6.2,0,6.2,0l33.8-25.3h18v-40.4h-17.5L109.5,110.7z M85.4,128.6
		c-7.4,7.5-11.4,17.6-11.1,28.1c0,10.5,4,20.6,11.4,28.1c0.7,0.9,1.9,1.5,3.1,1.4c1.2,0,2.3-0.5,3.1-1.4c1.7-1.9,1.7-4.8,0-6.7
		c-11.5-12-11.5-30.9,0-42.9c1.8-1.9,1.8-4.8,0-6.7c0,0,0,0,0,0C90.2,126.8,87.3,126.7,85.4,128.6L85.4,128.6L85.4,128.6z"/>
	<path class="st11" d="M56.2,157c-0.1,16,6.1,31.4,17.3,42.9c0.7,0.9,1.9,1.5,3.1,1.4c1.2,0,2.3-0.5,3.1-1.4c1.7-1.9,1.7-4.8,0-6.7
		c-9.6-9.6-14.9-22.6-14.8-36.2c0.2-13.5,5.5-26.4,14.8-36.2c1.8-1.9,1.8-4.8,0-6.7c-1.7-1.8-4.6-1.8-6.4-0.1l-0.1,0.1
		C61.9,125.6,55.8,141,56.2,157z"/>
	<path class="st11" d="M57.9,99.1c-30.9,32.3-30.8,83.2,0.4,115.2c0.7,0.9,1.9,1.5,3.1,1.4c1.2,0,2.3-0.5,3.1-1.4
		c1.7-1.9,1.7-4.8,0-6.7c-27.6-28.4-27.6-73.5,0-101.9c1.8-1.9,1.8-4.8,0-6.7c0,0,0,0,0,0C62.7,97.3,59.8,97.2,57.9,99.1L57.9,99.1
		L57.9,99.1z"/>
</g>
</svg>
