<?xml version="1.0" encoding="utf-8"?>
<!-- Generator: Adobe Illustrator 22.0.0, SVG Export Plug-In . SVG Version: 6.00 Build 0)  -->
<svg version="1.1" id="Layer_1" xmlns="http://www.w3.org/2000/svg" xmlns:xlink="http://www.w3.org/1999/xlink" x="0px" y="0px"
	 viewBox="0 0 728.1 478.1" style="enable-background:new 0 0 728.1 478.1;" xml:space="preserve">
<style type="text/css">
	.st0{fill:#E59429;}
	.st1{opacity:0.1;enable-background:new    ;}
	.st2{fill:#7D7060;}
	.st3{opacity:8.000000e-02;enable-background:new    ;}
	.st4{fill:#4A5058;}
	.st5{fill:#DDCEA6;}
	.st6{fill:#EFE2B9;}
</style>
<title>cat-chat</title>
<path class="st0" d="M586.4,320.7c78.1,0,141.7-63.6,141.7-141.7c0-35.1-13-68.9-36.5-94.9c-6.8-6.9-17.9-7-24.8-0.2
	c-6.5,6.4-7,16.7-1.2,23.7c39.4,43.7,35.9,111.1-7.8,150.6c-19.6,17.7-45,27.4-71.4,27.4c-9.7-0.2-17.7,7.4-18,17.1
	c-0.2,9.7,7.4,17.7,17.1,18L586.4,320.7L586.4,320.7z"/>
<path class="st1" d="M586.4,285.6c13.5,0,27-2.5,39.5-7.6c11,6.3,20.3,15.2,27.1,26c-20.5,11-43.4,16.7-66.6,16.7
	c-9.7,0.2-17.7-7.4-18-17.1c-0.2-9.7,7.4-17.7,17.1-18L586.4,285.6L586.4,285.6z"/>
<path class="st0" d="M407.1,479.1c15.8,0,28.6-12.8,28.6-28.6V344.8h-57.2v105.7C378.5,466.3,391.3,479.1,407.1,479.1z"/>
<path class="st2" d="M378.5,429.5c21.1,0.3,38.5-16.5,38.9-37.6c0.3-21.1-16.5-38.5-37.6-38.9h-1.2V429.5z"/>
<path class="st0" d="M439.6,267.9h115.5c42.5,0,76.9,34.4,76.9,76.9v105.7c0,15.8-12.8,28.6-28.6,28.6c-15.8,0-28.6-12.8-28.6-28.6
	v-31.4c-6.4,1.7-13,2.6-19.6,2.5h-36.5v28.8c0,15.8-12.8,28.6-28.6,28.6c-15.8,0-28.6-12.8-28.6-28.6v-28.9
	c-48.3-0.9-87-40.2-87-88.5C374.4,297.1,403.6,267.9,439.6,267.9L439.6,267.9z"/>
<path class="st2" d="M631.6,337.5c0.2,2.4,0.3,4.8,0.3,7.3v62.9c-19.4,0.1-35.2-15.5-35.3-34.9C596.6,353.4,612.2,337.6,631.6,337.5
	z"/>
<path class="st3" d="M439.6,267.9h115.5c19.6,0,38.4,7.5,52.7,20.9c-22.1,39.9-66.9,67.7-119.5,67.7H377.5
	c-2.1-7.6-3.1-15.5-3.1-23.4C374.4,297.1,403.6,267.9,439.6,267.9L439.6,267.9z"/>
<path class="st0" d="M263,2.1c33.4,8.5,66,20,97.4,34.3c35.9-9.5,73.6-9.5,109.5,0c31.4-14.3,64-25.8,97.4-34.3
	c20.1-5.1,40.6,7,45.8,27.2c0.9,3.7,1.3,7.5,1.1,11.3c-1.9,35.2-6.9,70.2-15.1,104.6c6,14,10.1,28.8,12.2,43.9
	c10.3,74.3-52.2,140.2-133.2,140.2H352.3c-81,0-143.5-65.9-133.1-140.2c2.1-15.1,6.2-29.8,12.2-43.8c-8.2-34.3-13.3-69.3-15.2-104.6
	C215,19.8,231,2,251.7,0.9C255.5,0.7,259.4,1.1,263,2.1z"/>
<path class="st4" d="M496.7,177.2c4.5,0,8.1-3.6,8.1-8.1v0v-13c0-4.5-3.6-8.1-8.1-8.1c-4.5,0-8.1,3.6-8.1,8.1v13
	C488.6,173.6,492.2,177.3,496.7,177.2L496.7,177.2L496.7,177.2z M333.7,177.2c4.5,0,8.1-3.6,8.1-8.1v0v-13c0-4.5-3.6-8.1-8.1-8.1
	c-4.5,0-8.1,3.6-8.1,8.1v13C325.6,173.6,329.2,177.3,333.7,177.2L333.7,177.2L333.7,177.2z"/>
<path class="st1" d="M413.8,262.6c3.3,0,5.9-2.7,5.9-6l0,0v-34.4c0-3.3-2.6-6-5.9-6c-3.3,0-5.9,2.7-5.9,6v34.4
	C407.9,259.9,410.5,262.6,413.8,262.6C413.8,262.6,413.8,262.6,413.8,262.6L413.8,262.6z"/>
<path class="st5" d="M367.9,248c36.7,0,47.3-26.1,47.3-37.4c0,11.2,10.6,37.4,47.3,37.4l22.7-65.5H345.2L367.9,248z"/>
<path class="st6" d="M275.1,43.3c15.4,3.9,30.4,9.3,44.9,15.9c5.6,2.6,8.1,9.2,5.5,14.8c0,0,0,0,0,0c-0.5,1-1,1.9-1.7,2.7
	c-13.2,15.1-28.8,27.9-46.2,37.9c-5.4,3.1-12.2,1.2-15.3-4.1c-0.5-0.9-0.9-1.9-1.2-2.9c-3.7-15.5-6-31.2-6.9-47.1
	c-0.5-9.2,6.6-17.1,15.8-17.6C271.7,42.7,273.5,42.9,275.1,43.3z"/>
<path class="st2" d="M567.4,2.2c14.7-3.8,30.1,1.6,39.3,13.7c-7.3,33.1-40,53.9-73.1,46.6c-19-4.2-34.9-17.2-42.8-35
	C515.7,17.3,541.3,8.8,567.4,2.2z"/>
<path class="st6" d="M576.2,60.5c-0.8,15.9-3.1,31.7-6.9,47.1c-1.4,6-7.5,9.7-13.5,8.3c-1-0.3-2-0.7-3-1.2
	c-17.4-10-33-22.8-46.2-37.9c-4.1-4.6-3.6-11.7,1-15.8c0,0,0,0,0,0c0.8-0.7,1.7-1.3,2.7-1.7c14.4-6.7,29.4-12,44.9-15.9
	c9-2.3,18.1,3.1,20.4,12.1C576.2,57.1,576.3,58.8,576.2,60.5L576.2,60.5z"/>
<path class="st4" d="M382.9,199.2l7.6,7.8c11.5,12,32,13.6,45.8,3.5c0,0,0,0,0,0c1.4-1.1,2.8-2.2,4-3.5l7.6-7.8
	c2.5-2.6,2.1-6.5-0.9-8.7c-1.3-0.9-2.9-1.5-4.6-1.5h-54c-3.9,0-7.1,2.8-7.1,6.2C381.3,196.7,381.9,198.1,382.9,199.2L382.9,199.2z
	 M579.3,228.1c5.2,0.1,9.4-3.5,9.5-8c0.1-4.2-3.5-7.7-8.3-8.2l-52.1-5.5c-5.1-0.6-9.8,2.6-10.4,7.1s3,8.5,8.1,9.1l52.2,5.5
	C578.5,228.1,578.9,228.1,579.3,228.1L579.3,228.1z M557.8,276c5.2,0,9.3-3.7,9.3-8.2c0-2.5-1.3-4.8-3.6-6.4l-41.3-28.3
	c-4.1-2.8-9.9-2.2-13.1,1.4c-3.2,3.5-2.5,8.7,1.6,11.4l41.3,28.3C553.7,275.4,555.7,276,557.8,276z M251.5,228.1
	c0.4,0,0.8,0,1.1-0.1l52.2-5.5c5.1-0.6,8.8-4.6,8.1-9.1c-0.6-4.5-5.3-7.6-10.4-7.1l-52.1,5.5c-5.1,0.5-8.8,4.5-8.3,9
	C242.6,225,246.7,228.2,251.5,228.1L251.5,228.1z M273,276c2.1,0,4.1-0.6,5.7-1.7L320,246c4.1-2.8,4.8-7.9,1.6-11.4
	c-3.2-3.5-9.1-4.2-13.1-1.4l0,0l-41.3,28.3c-4.1,2.8-4.8,7.9-1.6,11.4C267.4,274.8,270.1,276,273,276L273,276z"/>
</svg>
