<?xml version="1.0" encoding="utf-8"?>
<!-- Generator: Adobe Illustrator 22.0.0, SVG Export Plug-In . SVG Version: 6.00 Build 0)  -->
<svg version="1.1" id="Layer_1" xmlns="http://www.w3.org/2000/svg" xmlns:xlink="http://www.w3.org/1999/xlink" x="0px" y="0px"
	 viewBox="0 0 728.1 478.1" style="enable-background:new 0 0 728.1 478.1;" xml:space="preserve">
<style type="text/css">
	.st0{fill:#E59429;}
	.st1{opacity:0.1;enable-background:new    ;}
	.st2{fill:#7D7060;}
	.st3{opacity:8.000000e-02;enable-background:new    ;}
	.st4{fill:#4A5058;}
	.st5{fill:#DDCEA6;}
	.st6{fill:#EFE2B9;}
	.st7{fill:#FFFFFF;}
	.st8{fill:#1D1D1B;}
	.st9{fill:none;stroke:#1D1D1B;stroke-miterlimit:10;}
	.st10{fill:#030104;}
</style>
<path class="st0" d="M586.4,319.7c78.1,0,141.7-63.6,141.7-141.7c0-35.1-13-68.9-36.5-94.9c-6.8-6.9-17.9-7-24.8-0.2
	c-6.5,6.4-7,16.7-1.2,23.7c39.4,43.7,35.9,111.1-7.8,150.6c-19.6,17.7-45,27.4-71.4,27.4c-9.7-0.2-17.7,7.4-18,17.1
	c-0.2,9.7,7.4,17.7,17.1,18L586.4,319.7L586.4,319.7z"/>
<path class="st1" d="M586.4,284.6c13.5,0,27-2.5,39.5-7.6c11,6.3,20.3,15.2,27.1,26c-20.5,11-43.4,16.7-66.6,16.7
	c-9.7,0.2-17.7-7.4-18-17.1c-0.2-9.7,7.4-17.7,17.1-18L586.4,284.6L586.4,284.6z"/>
<path class="st0" d="M407.1,478.1c15.8,0,28.6-12.8,28.6-28.6V343.8h-57.2v105.7C378.5,465.3,391.3,478.1,407.1,478.1z"/>
<path class="st2" d="M378.5,428.5c21.1,0.3,38.5-16.5,38.9-37.6c0.3-21.1-16.5-38.5-37.6-38.9h-1.2V428.5z"/>
<path class="st0" d="M439.6,266.9h115.5c42.5,0,76.9,34.4,76.9,76.9v105.7c0,15.8-12.8,28.6-28.6,28.6c-15.8,0-28.6-12.8-28.6-28.6
	v-31.4c-6.4,1.7-13,2.6-19.6,2.5h-36.5v28.8c0,15.8-12.8,28.6-28.6,28.6c-15.8,0-28.6-12.8-28.6-28.6v-28.9
	c-48.3-0.9-87-40.2-87-88.5C374.4,296.1,403.6,266.9,439.6,266.9L439.6,266.9z"/>
<path class="st2" d="M631.6,336.5c0.2,2.4,0.3,4.8,0.3,7.3v62.9c-19.4,0.1-35.2-15.5-35.3-34.9C596.6,352.4,612.2,336.6,631.6,336.5
	z"/>
<path class="st3" d="M439.6,266.9h115.5c19.6,0,38.4,7.5,52.7,20.9c-22.1,39.9-66.9,67.7-119.5,67.7H377.5
	c-2.1-7.6-3.1-15.5-3.1-23.4C374.4,296.1,403.6,266.9,439.6,266.9L439.6,266.9z"/>
<path class="st0" d="M263,1.1c33.4,8.5,66,20,97.4,34.3c35.9-9.5,73.6-9.5,109.5,0c31.4-14.3,64-25.8,97.4-34.3
	c20.1-5.1,40.6,7,45.8,27.2c0.9,3.7,1.3,7.5,1.1,11.3c-1.9,35.2-6.9,70.2-15.1,104.6c6,14,10.1,28.8,12.2,43.9
	c10.3,74.3-52.2,140.2-133.2,140.2H352.3c-81,0-143.5-65.9-133.1-140.2c2.1-15.1,6.2-29.8,12.2-43.8c-8.2-34.3-13.3-69.3-15.2-104.6
	C215,18.8,231,1,251.7-0.1C255.5-0.3,259.4,0.1,263,1.1z"/>
<path class="st4" d="M496.7,176.2c4.5,0,8.1-3.6,8.1-8.1v0v-13c0-4.5-3.6-8.1-8.1-8.1c-4.5,0-8.1,3.6-8.1,8.1v13
	C488.6,172.6,492.2,176.3,496.7,176.2L496.7,176.2L496.7,176.2z M333.7,176.2c4.5,0,8.1-3.6,8.1-8.1v0v-13c0-4.5-3.6-8.1-8.1-8.1
	c-4.5,0-8.1,3.6-8.1,8.1v13C325.6,172.6,329.2,176.3,333.7,176.2L333.7,176.2L333.7,176.2z"/>
<path class="st1" d="M413.8,261.6c3.3,0,5.9-2.7,5.9-6v0v-34.4c0-3.3-2.6-6-5.9-6c-3.3,0-5.9,2.7-5.9,6v34.4
	C407.9,258.9,410.5,261.6,413.8,261.6C413.8,261.6,413.8,261.6,413.8,261.6L413.8,261.6z"/>
<path class="st5" d="M367.9,247c36.7,0,47.3-26.1,47.3-37.4c0,11.2,10.6,37.4,47.3,37.4l22.7-65.5H345.2L367.9,247z"/>
<path class="st6" d="M275.1,42.3c15.4,3.9,30.4,9.3,44.9,15.9c5.6,2.6,8.1,9.2,5.5,14.8c0,0,0,0,0,0c-0.5,1-1,1.9-1.7,2.7
	c-13.2,15.1-28.8,27.9-46.2,37.9c-5.4,3.1-12.2,1.2-15.3-4.1c-0.5-0.9-0.9-1.9-1.2-2.9c-3.7-15.5-6-31.2-6.9-47.1
	c-0.5-9.2,6.6-17.1,15.8-17.6C271.7,41.7,273.5,41.9,275.1,42.3z"/>
<path class="st2" d="M567.4,1.2c14.7-3.8,30.1,1.6,39.3,13.7c-7.3,33.1-40,53.9-73.1,46.6c-19-4.2-34.9-17.2-42.8-35
	C515.7,16.3,541.3,7.8,567.4,1.2z"/>
<path class="st6" d="M576.2,59.5c-0.8,15.9-3.1,31.7-6.9,47.1c-1.4,6-7.5,9.7-13.5,8.3c-1-0.3-2-0.7-3-1.2
	c-17.4-10-33-22.8-46.2-37.9c-4.1-4.6-3.6-11.7,1-15.8c0,0,0,0,0,0c0.8-0.7,1.7-1.3,2.7-1.7c14.4-6.7,29.4-12,44.9-15.9
	c9-2.3,18.1,3.1,20.4,12.1C576.2,56.1,576.3,57.8,576.2,59.5L576.2,59.5z"/>
<path class="st4" d="M382.9,198.2l7.6,7.8c11.5,12,32,13.6,45.8,3.5c0,0,0,0,0,0c1.4-1.1,2.8-2.2,4-3.5l7.6-7.8
	c2.5-2.6,2.1-6.5-0.9-8.7c-1.3-0.9-2.9-1.5-4.6-1.5h-54c-3.9,0-7.1,2.8-7.1,6.2C381.3,195.7,381.9,197.1,382.9,198.2L382.9,198.2z
	 M579.3,227.1c5.2,0.1,9.4-3.5,9.5-8c0.1-4.2-3.5-7.7-8.3-8.2l-52.1-5.5c-5.1-0.6-9.8,2.6-10.4,7.1s3,8.5,8.1,9.1l52.2,5.5
	C578.5,227.1,578.9,227.1,579.3,227.1L579.3,227.1z M557.8,275c5.2,0,9.3-3.7,9.3-8.2c0-2.5-1.3-4.8-3.6-6.4l-41.3-28.3
	c-4.1-2.8-9.9-2.2-13.1,1.4c-3.2,3.5-2.5,8.7,1.6,11.4l41.3,28.3C553.7,274.4,555.7,275,557.8,275z M251.5,227.1
	c0.4,0,0.8,0,1.1-0.1l52.2-5.5c5.1-0.6,8.8-4.6,8.1-9.1c-0.6-4.5-5.3-7.6-10.4-7.1l-52.1,5.5c-5.1,0.5-8.8,4.5-8.3,9
	C242.6,224,246.7,227.2,251.5,227.1L251.5,227.1z M273,275c2.1,0,4.1-0.6,5.7-1.7L320,245c4.1-2.8,4.8-7.9,1.6-11.4
	c-3.2-3.5-9.1-4.2-13.1-1.4l0,0l-41.3,28.3c-4.1,2.8-4.8,7.9-1.6,11.4C267.4,273.8,270.1,275,273,275L273,275z"/>
<g id="_Группа_">
	<path class="st7" d="M7.1,221.9c0-48.5,43.4-87.8,96.5-87.8s96.5,39.4,96.5,87.8c-0.1,17.3-5.6,34.2-15.9,48.1
		c-0.4,0.8-0.6,1.6-0.7,2.5c1,14.8,4.1,33.4,11.7,46.4c-5.9-1.4-13.8-3.2-22.4-6c-8.8-2.8-17.2-6.6-25.1-11.2
		c-7.2-4.6-15.2-10.2-17.2-11.6c-1-1.4-2.9-1.9-4.4-1c-1,0.7-1.7,1.9-1.7,3.2c0,2.1,0,2.8,14.1,11.6c-11.2,4-22.9,6-34.8,6
		C50.5,309.7,7.1,270.4,7.1,221.9L7.1,221.9z"/>
	<path class="st8" d="M124.2,292.1c0-1.3,0.6-2.5,1.7-3.1c1.5-0.9,3.5-0.4,4.5,1c5.5,4.2,11.3,8.1,17.2,11.6
		c7.9,4.7,16.4,8.4,25.1,11.2c7.3,2.5,14.8,4.5,22.4,6c-7.6-13-10.7-31.6-11.7-46.4c0-0.9,0.2-1.7,0.7-2.5
		c10.3-14,15.8-30.8,15.9-48.1c0-48.5-43.4-87.8-96.5-87.8S7.1,173.4,7.1,221.9s43.4,87.8,96.5,87.8c11.9,0,23.6-2,34.8-6
		C124.2,295,124.2,294.2,124.2,292.1L124.2,292.1z M205.5,321.3c1.1,1.1,1.4,2.8,0.7,4.2c-0.6,1.1-1.8,1.8-3.1,1.8h-0.3
		c-1.4,0-33.8-4.9-57.2-18.6c-13.4,5.4-27.6,8.1-42,8.1c-56.9,0-103.4-42.5-103.4-94.9S46.7,127,103.6,127s103.4,42.5,103.4,94.9
		c0.1,18.4-5.7,36.4-16.5,51.3C192.4,296,197.9,313.2,205.5,321.3L205.5,321.3z"/>
	<path class="st9" d="M0.5,221.9c0,52.3,46.5,94.9,103.4,94.9c14.4,0.1,28.7-2.6,42-8.1c23.4,13.7,55.8,18.3,57.2,18.6h0.4
		c1.3,0,2.5-0.7,3.1-1.8c0.7-1.4,0.4-3.1-0.7-4.2c-7.9-8.1-13.4-25.3-15.5-48.1c10.8-14.9,16.6-32.9,16.5-51.3
		c0-52.3-46.5-94.9-103.4-94.9S0.5,169.5,0.5,221.9z"/>
	<path class="st9" d="M7.1,221.9c0-48.5,43.4-87.8,96.5-87.8s96.5,39.4,96.5,87.8c-0.1,17.3-5.6,34.2-15.9,48.1
		c-0.4,0.8-0.6,1.6-0.7,2.5c1,14.8,4.1,33.4,11.7,46.4c-5.9-1.4-13.8-3.2-22.4-6c-8.8-2.8-17.2-6.6-25.1-11.2
		c-7.2-4.6-15.2-10.2-17.2-11.6c-1-1.4-2.9-1.9-4.4-1c-1,0.7-1.7,1.9-1.7,3.2c0,2.1,0,2.8,14.1,11.6c-11.2,4-22.9,6-34.8,6
		C50.5,309.7,7.1,270.4,7.1,221.9L7.1,221.9z"/>
</g>
<g id="c75_volume">
	<path class="st10" d="M109.7,170.9c0,0-5.5-4.2-5.5,0v91.7c0,5.3,6.2,0,6.2,0l33.8-25.3h17.9v-40.4h-17.5L109.7,170.9z M74.6,217
		c0,10.5,4,20.6,11.4,28.1c0.7,0.9,1.9,1.5,3.1,1.4c1.2,0,2.3-0.6,3.1-1.5c1.7-1.9,1.7-4.8,0-6.7c-11.5-12-11.5-30.9,0-42.9
		c1.8-1.9,1.8-4.8,0-6.7c-1.8-1.8-4.7-1.8-6.5-0.1c0,0,0,0,0,0l-0.1,0.1C78.2,196.3,74.2,206.5,74.6,217z"/>
	<path class="st10" d="M56.3,217.3c-0.1,16,6.1,31.4,17.3,42.9c0.7,0.9,1.9,1.5,3.1,1.4c1.2,0,2.3-0.5,3.1-1.4
		c1.7-1.9,1.7-4.8,0-6.7c-9.6-9.6-14.9-22.6-14.8-36.2c0.2-13.5,5.5-26.4,14.8-36.2c1.8-1.9,1.8-4.8,0-6.7c-1.7-1.8-4.6-1.9-6.4-0.1
		l-0.1,0.1C62,185.8,55.9,201.3,56.3,217.3z"/>
	<path class="st10" d="M35,217c0,21.5,8.4,42.2,23.4,57.6c0.7,0.9,1.9,1.5,3.1,1.4c1.2,0,2.3-0.5,3.1-1.4c1.7-1.9,1.7-4.8,0-6.7
		c-27.6-28.4-27.6-73.5,0-101.9c1.8-1.9,1.8-4.8,0-6.7c-1.8-1.8-4.6-1.9-6.4-0.1c0,0,0,0,0,0l-0.1,0.1C43.1,174.8,34.8,195.5,35,217
		z"/>
</g>
</svg>
