<?xml version="1.0" encoding="utf-8"?>
<!-- Generator: Adobe Illustrator 22.0.0, SVG Export Plug-In . SVG Version: 6.00 Build 0)  -->
<svg version="1.1" id="Capa_1" xmlns="http://www.w3.org/2000/svg" xmlns:xlink="http://www.w3.org/1999/xlink" x="0px" y="0px"
	 viewBox="0 0 60 60" style="enable-background:new 0 0 60 60;" xml:space="preserve">
<style type="text/css">
	.st0{fill:#1D1D1B;}
	.st1{fill:#FFFFFF;}
	.st2{fill:none;stroke:#1D1D1B;stroke-miterlimit:10;}
	.st3{fill:#030104;}
</style>
<g id="XMLID_1_">
	<g>
		<path class="st0" d="M30,1.5c16.5,0,30,12.1,30,27s-13.5,27-30,27c-4.3,0-8.4-0.8-12.2-2.3c-6.8,3.9-16.2,5.3-16.6,5.3
			c0,0-0.1,0-0.1,0c-0.4,0-0.7-0.2-0.9-0.5c-0.2-0.4-0.1-0.9,0.2-1.2c2.3-2.3,3.9-7.2,4.5-13.7C1.6,38.8,0,33.7,0,28.5
			C0,13.6,13.5,1.5,30,1.5z M58,28.5c0-13.8-12.6-25-28-25S2,14.7,2,28.5c0,4.9,1.6,9.6,4.6,13.7c0.1,0.2,0.2,0.4,0.2,0.7
			c-0.3,4.2-1.2,9.5-3.4,13.2c1.7-0.3,4-0.9,6.5-1.7c2.5-0.8,5.1-1.9,7.3-3.2c2.1-1.3,4.5-2.8,5-3.3c0.3-0.4,0.9-0.6,1.3-0.3
			c0.3,0.2,0.5,0.5,0.5,0.9c0,0.6,0,0.8-4.1,3.3c3.2,1.1,6.6,1.7,10.1,1.7C45.4,53.5,58,42.3,58,28.5z"/>
		<path class="st1" d="M30,3.5c15.4,0,28,11.2,28,25s-12.6,25-28,25c-3.5,0-6.9-0.6-10.1-1.7c4.1-2.5,4.1-2.7,4.1-3.3
			c0-0.3-0.2-0.7-0.5-0.9c-0.5-0.3-1-0.1-1.3,0.3c-0.6,0.4-2.9,2-5,3.3c-2.2,1.3-4.8,2.4-7.3,3.2c-2.5,0.8-4.8,1.3-6.5,1.7
			c2.2-3.7,3.1-9,3.4-13.2c0-0.2-0.1-0.5-0.2-0.7C3.6,38.1,2,33.4,2,28.5C2,14.7,14.6,3.5,30,3.5z"/>
	</g>
	<g>
		<path class="st2" d="M30,1.5c-16.5,0-30,12.1-30,27c0,5.2,1.6,10.3,4.8,14.6c-0.6,6.5-2.2,11.4-4.5,13.7C0,57.1-0.1,57.6,0.1,58
			c0.2,0.3,0.5,0.5,0.9,0.5c0,0,0.1,0,0.1,0c0.4-0.1,9.8-1.4,16.6-5.3c3.9,1.6,8,2.3,12.2,2.3c16.5,0,30-12.1,30-27S46.5,1.5,30,1.5
			z"/>
		<path class="st2" d="M30,53.5c-3.5,0-6.9-0.6-10.1-1.7c4.1-2.5,4.1-2.7,4.1-3.3c0-0.3-0.2-0.7-0.5-0.9c-0.5-0.3-1-0.1-1.3,0.3
			c-0.6,0.4-2.9,2-5,3.3c-2.2,1.3-4.8,2.4-7.3,3.2c-2.5,0.8-4.8,1.3-6.5,1.7c2.2-3.7,3.1-9,3.4-13.2c0-0.2-0.1-0.5-0.2-0.7
			C3.6,38.1,2,33.4,2,28.5c0-13.8,12.6-25,28-25s28,11.2,28,25S45.4,53.5,30,53.5z"/>
	</g>
</g>
<g>
	<g id="c75_volume">
		<path class="st3" d="M18.7,22.8h-4.4v9.7h4.4l8.2,6.1c0,0,1.5,1.3,1.5,0c0-1.3,0-20.9,0-22.1c0-1-1.3,0-1.3,0L18.7,22.8z"/>
		<path class="st3" d="M33.2,20.9c-0.4-0.4-1.1-0.4-1.6,0c-0.4,0.4-0.4,1.1,0,1.6c1.4,1.4,2.1,3.3,2.1,5.2c0,1.9-0.7,3.7-2.1,5.2
			c-0.4,0.4-0.4,1.1,0,1.6c0.2,0.2,0.5,0.3,0.8,0.3c0.3,0,0.6-0.1,0.8-0.3c1.9-1.9,2.8-4.3,2.8-6.7C36,25.2,35.1,22.7,33.2,20.9z"/>
		<path class="st3" d="M36.2,17.4c-0.4-0.4-1.1-0.4-1.6,0c-0.4,0.4-0.4,1.1,0,1.6c2.4,2.4,3.6,5.5,3.6,8.7c0,3.2-1.2,6.3-3.6,8.7
			c-0.4,0.4-0.4,1.1,0,1.6c0.2,0.2,0.5,0.3,0.8,0.3c0.3,0,0.6-0.1,0.8-0.3c2.8-2.8,4.2-6.6,4.2-10.3C40.4,23.9,39,20.2,36.2,17.4z"
			/>
		<path class="st3" d="M39.9,13.8c-0.4-0.4-1.1-0.4-1.6,0c-0.4,0.4-0.4,1.1,0,1.6c3.4,3.4,5.1,7.8,5.1,12.2c0,4.4-1.7,8.9-5.1,12.3
			c-0.4,0.4-0.4,1.1,0,1.6c0.2,0.2,0.5,0.3,0.8,0.3c0.3,0,0.6-0.1,0.8-0.3c3.8-3.8,5.7-8.8,5.7-13.8C45.6,22.6,43.7,17.6,39.9,13.8z
			"/>
	</g>
</g>
</svg>
