<?xml version="1.0" encoding="utf-8"?>
<!-- Generator: Adobe Illustrator 22.0.0, SVG Export Plug-In . SVG Version: 6.00 Build 0)  -->
<svg version="1.1" id="Capa_1" xmlns="http://www.w3.org/2000/svg" xmlns:xlink="http://www.w3.org/1999/xlink" x="0px" y="0px"
	 viewBox="0 0 60 60" style="enable-background:new 0 0 60 60;" xml:space="preserve">
<style type="text/css">
	.st0{fill:#FFFFFF;}
	.st1{fill:#1D1D1B;}
	.st2{fill:none;stroke:#1D1D1B;stroke-miterlimit:10;}
	.st3{fill:#030104;}
</style>
<g id="XMLID_1_">
	<g>
		<path class="st0" d="M2,28.5c0-13.8,12.6-25,28-25s28,11.2,28,25c0,4.9-1.6,9.6-4.6,13.7c-0.1,0.2-0.2,0.5-0.2,0.7
			c0.3,4.2,1.2,9.5,3.4,13.2c-1.7-0.4-4-0.9-6.5-1.7s-5.1-1.9-7.3-3.2c-2.1-1.3-4.4-2.9-5-3.3c-0.3-0.4-0.8-0.6-1.3-0.3
			c-0.3,0.2-0.5,0.6-0.5,0.9c0,0.6,0,0.8,4.1,3.3c-3.2,1.1-6.6,1.7-10.1,1.7C14.6,53.5,2,42.3,2,28.5z"/>
		<path class="st1" d="M36,48.5c0-0.4,0.2-0.7,0.5-0.9c0.4-0.3,1-0.1,1.3,0.3c0.5,0.5,2.9,2,5,3.3c2.2,1.3,4.8,2.4,7.3,3.2
			s4.8,1.4,6.5,1.7c-2.2-3.7-3.1-9-3.4-13.2c0-0.3,0.1-0.5,0.2-0.7c3-4.1,4.6-8.8,4.6-13.7c0-13.8-12.6-25-28-25S2,14.7,2,28.5
			s12.6,25,28,25c3.5,0,6.9-0.6,10.1-1.7C36,49.3,36,49.1,36,48.5z M59.6,56.8c0.3,0.3,0.4,0.8,0.2,1.2c-0.2,0.3-0.5,0.5-0.9,0.5
			h-0.1c-0.4,0-9.8-1.4-16.6-5.3c-3.8,1.5-7.9,2.3-12.2,2.3c-16.5,0-30-12.1-30-27c0-14.9,13.5-27,30-27s30,12.1,30,27
			c0,5.2-1.6,10.3-4.8,14.6C55.8,49.6,57.4,54.5,59.6,56.8z"/>
	</g>
	<g>
		<path class="st2" d="M0.1,28.5c0,14.9,13.5,27,30,27c4.2,0,8.3-0.7,12.2-2.3c6.8,3.9,16.2,5.2,16.6,5.3H59c0.4,0,0.7-0.2,0.9-0.5
			c0.2-0.4,0.1-0.9-0.2-1.2c-2.3-2.3-3.9-7.2-4.5-13.7c3.2-4.3,4.8-9.4,4.8-14.6c0-14.9-13.5-27-30-27S0.1,13.6,0.1,28.5z"/>
		<path class="st2" d="M2,28.5c0-13.8,12.6-25,28-25s28,11.2,28,25c0,4.9-1.6,9.6-4.6,13.7c-0.1,0.2-0.2,0.5-0.2,0.7
			c0.3,4.2,1.2,9.5,3.4,13.2c-1.7-0.4-4-0.9-6.5-1.7s-5.1-1.9-7.3-3.2c-2.1-1.3-4.4-2.9-5-3.3c-0.3-0.4-0.8-0.6-1.3-0.3
			c-0.3,0.2-0.5,0.6-0.5,0.9c0,0.6,0,0.8,4.1,3.3c-3.2,1.1-6.6,1.7-10.1,1.7C14.6,53.5,2,42.3,2,28.5z"/>
	</g>
</g>
<g>
	<g id="c75_volume">
		<path class="st3" d="M31.8,14c0,0-1.6-1.2-1.6,0c0,1.4,0,24.5,0,26.1c0,1.5,1.8,0,1.8,0l9.8-7.2H47V21.4h-5.1L31.8,14z"/>
		<path class="st3" d="M21.6,27.1c0,2.9,1.1,5.8,3.3,8c0.2,0.3,0.6,0.4,0.9,0.4c0.3,0,0.6-0.1,0.9-0.4c0.5-0.6,0.5-1.4,0-1.9
			c-1.7-1.7-2.5-3.9-2.5-6.1s0.8-4.4,2.5-6.1c0.5-0.6,0.5-1.4,0-1.9c-0.6-0.5-1.4-0.5-1.9,0C22.6,21.3,21.5,24.2,21.6,27.1z"/>
		<path class="st3" d="M16.3,27.2c0,4.4,1.6,8.8,5,12.2c0.2,0.3,0.6,0.4,0.9,0.4c0.3,0,0.6-0.1,0.9-0.4c0.5-0.6,0.5-1.4,0-1.9
			c-2.9-2.8-4.3-6.6-4.3-10.3c0.1-3.8,1.5-7.5,4.3-10.3c0.5-0.6,0.5-1.4,0-1.9c-0.6-0.5-1.4-0.5-1.9,0
			C17.9,18.3,16.2,22.7,16.3,27.2z"/>
		<path class="st3" d="M10.1,27.1c0,5.9,2.3,11.9,6.8,16.4c0.2,0.3,0.6,0.4,0.9,0.4c0.3,0,0.6-0.1,0.9-0.4c0.5-0.6,0.5-1.4,0-1.9
			c-4-4-6-9.2-6-14.5c0-5.2,2-10.5,6-14.5c0.5-0.6,0.5-1.4,0-1.9c-0.6-0.5-1.4-0.5-1.9,0C12.3,15.2,10.1,21.2,10.1,27.1z"/>
	</g>
</g>
</svg>
