<?xml version="1.0" encoding="utf-8"?>
<!-- Generator: Adobe Illustrator 21.1.0, SVG Export Plug-In . SVG Version: 6.00 Build 0)  -->
<svg version="1.1" id="Слой_1" xmlns="http://www.w3.org/2000/svg" xmlns:xlink="http://www.w3.org/1999/xlink" x="0px" y="0px"
	 viewBox="0 0 283.5 283.5" style="enable-background:new 0 0 283.5 283.5;" xml:space="preserve">
<style type="text/css">
	.st0{stroke:#000000;stroke-miterlimit:10;}
	.st1{stroke:#000000;stroke-width:0.7299;stroke-miterlimit:10;}
	.st2{stroke:#000000;stroke-width:0.7025;stroke-miterlimit:10;}
	.st3{stroke:#000000;stroke-width:0.6108;stroke-miterlimit:10;}
	.st4{stroke:#000000;stroke-width:0.4575;stroke-miterlimit:10;}
</style>
<ellipse class="st0" cx="79.2" cy="224.4" rx="39.5" ry="24.7"/>
<ellipse class="st0" cx="181.6" cy="195.3" rx="39.8" ry="23.2"/>
<path class="st0" d="M106.7,234.4L106.7,234.4c-6.6,0-12-5.4-12-12V110.7c0-6.6,5.4-12,12-12h0c6.6,0,12,5.4,12,12v111.7
	C118.7,229,113.3,234.4,106.7,234.4z"/>
<path class="st0" d="M209.6,205.3L209.6,205.3c-6.6,0-12-5.4-12-12V81.6c0-6.6,5.4-12,12-12h0c6.6,0,12,5.4,12,12v111.7
	C221.6,199.9,216.2,205.3,209.6,205.3z"/>
<path class="st0" d="M211,103.7l-98.5,24.8c-6.4,1.6-13-2.3-14.6-8.7l-2.6-10.2c-1.6-6.4,2.3-13,8.7-14.6l98.5-24.8
	c6.4-1.6,13,2.3,14.6,8.7l2.6,10.2C221.3,95.5,217.4,102,211,103.7z"/>
<circle class="st0" cx="134.1" cy="40" r="0"/>
<g>
	<path class="st1" d="M117.3,32.2c0.4-6,0.6-9,0.9-15C60.5,6.1,18.3,36.6,10.3,94.6c5.8,1.6,8.7,2.4,14.5,3.9
		C32.3,48.6,67.6,23.2,117.3,32.2z"/>
</g>
<rect x="118.7" y="25.7" class="st2" width="0" height="0"/>
<g>
	<path class="st3" d="M120.3,58.5c-0.2-5.2-0.2-7.8-0.4-13C72.2,32,40.5,54.9,38,104.2c4.9,1.8,7.3,2.7,12.2,4.6
		C52.9,66.2,79,47.4,120.3,58.5z"/>
</g>
<g>
	<path class="st4" d="M121.9,82.1c-0.4-4-0.5-6-0.9-10c-35.8-11.8-57,3.3-57.4,41.1c3.7,1.6,5.5,2.4,9.2,4.1
		C73.5,84.6,90.7,72.3,121.9,82.1z"/>
</g>
</svg>
