<?xml version="1.0" encoding="utf-8"?>
<!-- Generator: Adobe Illustrator 21.1.0, SVG Export Plug-In . SVG Version: 6.00 Build 0)  -->
<svg version="1.1" id="Слой_1" xmlns="http://www.w3.org/2000/svg" xmlns:xlink="http://www.w3.org/1999/xlink" x="0px" y="0px"
	 viewBox="0 0 283.5 283.5" style="enable-background:new 0 0 283.5 283.5;" xml:space="preserve">
<style type="text/css">
	.st0{fill:#666666;}
	.st1{fill:#333333;}
</style>
<ellipse class="st0" cx="79.2" cy="224.4" rx="39.5" ry="24.7"/>
<ellipse class="st0" cx="181.6" cy="195.3" rx="39.8" ry="23.2"/>
<path class="st0" d="M106.7,234.4L106.7,234.4c-6.6,0-12-5.4-12-12V110.7c0-6.6,5.4-12,12-12h0c6.6,0,12,5.4,12,12v111.7
	C118.7,229,113.3,234.4,106.7,234.4z"/>
<path class="st0" d="M209.6,205.3L209.6,205.3c-6.6,0-12-5.4-12-12V81.6c0-6.6,5.4-12,12-12h0c6.6,0,12,5.4,12,12v111.7
	C221.6,199.9,216.2,205.3,209.6,205.3z"/>
<path class="st0" d="M211,103.7l-98.5,24.8c-6.4,1.6-13-2.3-14.6-8.7l-2.6-10.2c-1.6-6.4,2.3-13,8.7-14.6l98.5-24.8
	c6.4-1.6,13,2.3,14.6,8.7l2.6,10.2C221.3,95.5,217.4,102,211,103.7z"/>
<rect x="129.7" y="8.8" transform="matrix(0.7431 0.6692 -0.6692 0.7431 137.9112 -52.2251)" class="st1" width="14.5" height="289.3"/>
</svg>
