<?xml version="1.0" encoding="utf-8"?>
<!-- Generator: Adobe Illustrator 22.0.0, SVG Export Plug-In . SVG Version: 6.00 Build 0)  -->
<svg version="1.1" id="Layer_1" xmlns="http://www.w3.org/2000/svg" xmlns:xlink="http://www.w3.org/1999/xlink" x="0px" y="0px"
	 viewBox="0 0 726.2 413.3" style="enable-background:new 0 0 726.2 413.3;" xml:space="preserve">
<style type="text/css">
	.st0{fill:#CEA86B;}
	.st1{fill:#27292B;}
	.st2{fill:#EDBCB9;}
	.st3{opacity:0.1;enable-background:new    ;}
	.st4{fill:#7D7060;}
	.st5{opacity:0.2;enable-background:new    ;}
	.st6{opacity:5.000000e-02;enable-background:new    ;}
	.st7{fill:#594625;}
</style>
<title>cow-chat</title>
<path class="st0" d="M22,256H5.7c0-42.1,42.9-64,85.3-64v16.3C56.7,208.3,22,224.6,22,256z"/>
<path class="st1" d="M28.6,268.1c0-9.2-6.6-16.7-14.8-16.7S-1,258.9-1,268.1s6.6,25.3,14.8,25.3S28.6,277.4,28.6,268.1z"/>
<circle class="st2" cx="136.9" cy="321.3" r="52.3"/>
<path class="st3" d="M136.9,269c-28.9,0-52.3,23.4-52.3,52.3c0,10.8,3.3,21.3,9.6,30.2h85.5c16.7-23.6,11.1-56.2-12.5-72.9
	C158.3,272.3,147.7,269,136.9,269z"/>
<path class="st2" d="M132.5,391.4c-4.5,0-8.2-3.6-8.2-8.1v-21.5c0-4.5,3.7-8.1,8.2-8.1c4.5,0,8.1,3.6,8.1,8.1v21.5
	C140.7,387.7,137,391.3,132.5,391.4C132.5,391.4,132.5,391.4,132.5,391.4L132.5,391.4z M158,389.2c-4.5,0-8.1-3.6-8.1-8.1v-21.5
	c0-4.5,3.6-8.1,8.1-8.1c4.5,0,8.2,3.6,8.2,8.1V381C166.2,385.5,162.5,389.2,158,389.2L158,389.2z"/>
<path class="st0" d="M309.6,413.3h-54.5c-3.1,0-5.6-2.5-5.6-5.6V289.7h65.7v118.1C315.2,410.8,312.7,413.3,309.6,413.3z"/>
<path class="st4" d="M309.6,413.3h-54.5c-3.1,0-5.6-2.5-5.6-5.6v-27.8h65.7v27.8C315.2,410.8,312.7,413.3,309.6,413.3z"/>
<path class="st5" d="M309.6,413.3h-54.5c-3.1,0-5.6-2.5-5.6-5.6V289.7h65.7v118.1C315.2,410.8,312.7,413.3,309.6,413.3z"/>
<path class="st0" d="M262.1,171.3H138.3c-49.7,0-90,40.3-90,90v146.4c0,3.1,2.5,5.6,5.6,5.6h54.5c3.1,0,5.6-2.5,5.6-5.6v-68.2
	c4.6,0.8,9.2,1.2,13.9,1.2h74.3v66.9c0,3.1,2.5,5.6,5.6,5.6h54.4c3.1,0,5.6-2.5,5.6-5.6v-68.4c42.8-7.8,73.8-45,73.9-88.5
	C341.6,206.9,306,171.3,262.1,171.3L262.1,171.3z"/>
<path class="st6" d="M262.1,171.3H138.3c-3.7,0-7.4,0.2-11,0.7c10,63.9,79.4,113.4,163.4,113.4c15.5,0,30.9-1.7,46-5.1
	c3.3-9.5,5-19.4,5-29.4C341.7,206.9,306.1,171.3,262.1,171.3L262.1,171.3L262.1,171.3z"/>
<path class="st1" d="M119.9,173.2c-37.4,7.8-65.8,38.4-70.8,76.3c28.7,11.4,61.1-2.7,72.5-31.4C127.3,203.6,126.7,187.3,119.9,173.2
	z"/>
<path class="st4" d="M185.9,12.3v39.9c0,3.6,2.8,6.7,6.4,7c20.8,1.8,40.5-9.6,49.4-28.5c1.6-3.3,0.3-7.3-2.9-9.1L204.3,1.6
	c-5.9-3.4-13.4-1.4-16.8,4.5C186.4,8,185.9,10.1,185.9,12.3L185.9,12.3z M419.4,12.3v39.9c0,3.7-2.8,6.7-6.5,7
	c-20.8,1.8-40.5-9.6-49.4-28.5c-1.6-3.3-0.3-7.3,2.9-9.1L401,1.6c5.9-3.4,13.4-1.3,16.8,4.6C418.8,8.1,419.4,10.2,419.4,12.3
	L419.4,12.3z"/>
<path class="st7" d="M186.7,68.7l-36.8,9.2c-23.2,5.8-42.7,21.4-53.4,42.8c-5.3,10.7-0.9,23.6,9.7,28.9c2.6,1.3,5.5,2.1,8.4,2.2
	c21.9,1.2,42.1-11.5,50.6-31.7L186.7,68.7z M418.5,68.7l36.8,9.2c23.2,5.8,42.7,21.4,53.4,42.8c5.3,10.7,0.9,23.6-9.7,28.9
	c-2.6,1.3-5.5,2.1-8.4,2.2c-21.9,1.2-42.2-11.5-50.6-31.8L418.5,68.7z"/>
<ellipse class="st0" cx="302.6" cy="138.8" rx="164.7" ry="129.3"/>
<path class="st1" d="M226.8,115.4c-4.5,0-8.1-3.6-8.1-8.2c-0.1-2.5-2.3-4.5-4.8-4.3c-2.4,0.1-4.2,2-4.3,4.3c0.2,4.5-3.3,8.3-7.8,8.4
	c-4.5,0.2-8.3-3.3-8.4-7.8c0,0,0,0,0,0c0-0.2,0-0.4,0-0.6c0-11.5,9.3-20.9,20.8-20.9s20.9,9.3,20.9,20.8c0,0,0,0,0,0
	C235,111.7,231.3,115.4,226.8,115.4L226.8,115.4z M403.8,115.4c-4.5,0-8.1-3.6-8.1-8.2c-0.1-2.5-2.3-4.5-4.8-4.3
	c-2.4,0.1-4.2,2-4.3,4.3c0,4.5-3.7,8.1-8.2,8.1c-4.5,0-8.1-3.6-8.1-8.1c0-11.5,9.3-20.9,20.9-20.9s20.9,9.3,20.9,20.9
	C412,111.7,408.3,115.4,403.8,115.4C403.8,115.4,403.8,115.4,403.8,115.4L403.8,115.4z M292.3,9.7c-43.3,2.1-82.1,17.4-110,40.8
	c20.7,26.9,59.2,31.9,86,11.2c15.1-11.6,23.9-29.6,24-48.6C292.4,12,292.4,10.8,292.3,9.7z"/>
<path class="st2" d="M302.6,114.7c-71.1,0-130.7,35.3-146.8,82.8c27.2,41.9,82.7,70.6,146.8,70.6s119.5-28.7,146.8-70.6
	C433.3,150,373.7,114.7,302.6,114.7z"/>
<ellipse class="st5" cx="258.8" cy="190" rx="19.9" ry="34"/>
<ellipse class="st5" cx="346.4" cy="190" rx="19.9" ry="34"/>
<path class="st4" d="M262.2,413.3h-54.5c-3.1,0-5.6-2.5-5.6-5.6v-27.8h65.7v27.8C267.8,410.8,265.3,413.3,262.2,413.3z M108.3,413.3
	H53.9c-3.1,0-5.6-2.5-5.6-5.6v-27.8H114v27.8C114,410.8,111.5,413.3,108.3,413.3L108.3,413.3z"/>
<circle class="st1" cx="186.6" cy="295.4" r="19.6"/>
</svg>
