<?xml version="1.0" encoding="utf-8"?>
<!-- Generator: Adobe Illustrator 22.0.0, SVG Export Plug-In . SVG Version: 6.00 Build 0)  -->
<svg version="1.1" id="Layer_1" xmlns="http://www.w3.org/2000/svg" xmlns:xlink="http://www.w3.org/1999/xlink" x="0px" y="0px"
	 viewBox="0 0 733.6 455.1" style="enable-background:new 0 0 733.6 455.1;" xml:space="preserve">
<style type="text/css">
	.st0{fill:#E8E8E8;}
	.st1{opacity:5.000000e-02;enable-background:new    ;}
	.st2{fill:#A4A8AB;}
	.st3{fill:#4A5058;}
	.st4{opacity:0.1;enable-background:new    ;}
</style>
<title>sheep-chat</title>
<circle class="st0" cx="35" cy="216.9" r="30.3"/>
<path class="st1" d="M43.1,240.5c-16.7,0-30.3-13.6-30.3-30.3c0-7.2,2.6-14.2,7.3-19.6c-14.5,8.3-19.6,26.8-11.3,41.3
	s26.8,19.6,41.3,11.3c3-1.7,5.7-4,8-6.6C53.5,239.2,48.4,240.5,43.1,240.5z"/>
<path class="st2" d="M274,455.1h-35.8c-3.6,0-6.5-2.9-6.5-6.5v-75h48.8v75C280.5,452.1,277.6,455.1,274,455.1z"/>
<path class="st3" d="M231.7,434.2h48.8v14.4c0,3.6-2.9,6.5-6.5,6.5c0,0,0,0,0,0h-35.7c-3.6,0-6.5-2.9-6.5-6.5l0,0l0,0L231.7,434.2z"
	/>
<path class="st0" d="M337,286.9c0-11.7-5.8-22.7-15.4-29.4c0.4-2.1,0.6-4.2,0.6-6.3c0-19.3-15.4-35.2-34.7-35.7
	c-4.7-19.2-24.1-30.9-43.3-26.2l-1,0.3c-12-14.5-33.3-17.2-48.6-6.1c-13.5-14.4-36.1-15.2-50.5-1.8c0,0,0,0,0,0
	c-0.6,0.6-1.2,1.2-1.8,1.8c-15.3-11.1-36.5-8.4-48.6,6.1c-19.1-5.2-38.7,5.9-44,25c0,0,0,0,0,0l-0.2,0.9
	c-19.7,0.6-35.3,17-34.7,36.7c0,0,0,0,0,0c0.1,1.8,0.2,3.6,0.6,5.4c-16.2,11.2-20.3,33.5-9.1,49.7c0,0,0,0,0,0
	c0.4,0.6,0.8,1.1,1.2,1.7c-12.1,15.6-9.4,38,6.2,50.2c3.4,2.7,7.3,4.7,11.5,6v1.6c0,19.7,16.1,35.7,35.8,35.7c0.9,0,1.9,0,2.8-0.1
	c7.7,18.2,28.7,26.7,46.9,19c2.6-1.1,5.1-2.5,7.4-4.2c13.2,14.6,35.8,15.7,50.4,2.5c14.6,13.2,37.2,12.1,50.4-2.5
	c15.9,11.8,38.3,8.5,50.1-7.4c1.7-2.3,3.1-4.8,4.2-7.4c0.9,0.1,1.9,0.1,2.8,0.1c19.7,0,35.8-16,35.8-35.8v0l0,0v-1.6
	c18.9-5.8,29.5-25.8,23.7-44.7c-1.3-4.2-3.3-8-6-11.5C334.4,302.6,337,294.9,337,286.9L337,286.9z"/>
<path class="st1" d="M337,286.9c0-11.7-5.8-22.7-15.4-29.4c0.4-2.1,0.6-4.2,0.6-6.3c0-19.3-15.4-35.2-34.7-35.7
	c-4.7-19.2-24.1-30.9-43.3-26.2l-1,0.3c-12-14.5-33.3-17.2-48.6-6.1c-13.5-14.4-36.1-15.2-50.5-1.8c0,0,0,0,0,0
	c-0.6,0.6-1.2,1.2-1.8,1.8c-15.3-11.1-36.5-8.4-48.6,6.1c-11.6-3.2-24-0.4-33.1,7.6c-0.8,16.8,12.2,31.1,29,31.9
	c3.9,0.2,7.9-0.4,11.6-1.7c0.5,17.1,10.7,32.5,26.2,39.6c1.9,22.5,20.2,40.1,42.7,41.2c9.8,18.8,31.4,28.1,51.8,22.5
	c16.9,13.9,41.4,13.6,57.9-0.7c16.2,14,40.1,14.6,57,1.4v-0.4c0-8-2.6-15.7-7.6-22C334.3,302.7,337,294.9,337,286.9z"/>
<path class="st2" d="M88.5,156.3c17.7-10.3,34.5-22.5,49.7-37.8l0.1-0.1c3.5-3.5,9.2-3.5,12.7,0c2,2,3,4.9,2.5,7.8
	c-3.7,22.8-11.3,45.7-21.2,67.6l-0.6,1.4c-6.9,15.4-24.9,22.2-40.3,15.3c-15.4-6.9-22.2-24.9-15.3-40.3
	C78.7,164.4,83,159.5,88.5,156.3L88.5,156.3z"/>
<path class="st4" d="M150.9,118.3c-3.5-3.5-9.1-3.5-12.6,0l0,0l-0.1,0.1c-13.1,13-27.6,24.4-43.4,34c-4.1,16.3,1.2,33.5,13.7,44.6
	c-3.1,4.8-5.3,10.2-6.4,15.9c12.7,0.8,24.5-6.4,29.7-17.9l0.6-1.4c9.9-21.9,17.4-44.8,21.2-67.6C153.9,123.3,153,120.4,150.9,118.3z
	"/>
<path class="st2" d="M496.9,156.3c-17.7-10.4-34.5-22.5-49.7-37.8l-0.1-0.1c-3.5-3.5-9.1-3.5-12.6-0.1l0,0c-2,2-3,4.9-2.5,7.8
	c3.8,22.8,11.3,45.7,21.2,67.6l0.6,1.4c6.9,15.4,24.9,22.2,40.3,15.3s22.2-24.9,15.3-40.3C506.7,164.3,502.4,159.5,496.9,156.3
	L496.9,156.3z"/>
<path class="st0" d="M479.2,151.9c0-15.1-7.6-29.2-20.1-37.5c9.9-22.8-0.6-49.3-23.4-59.2c-4.1-1.8-8.5-2.9-13-3.4
	C417.1,27.6,393,12.4,368.8,18c-3,0.7-5.9,1.7-8.7,3C346.8-0.1,319-6.3,298,7c-1.9,1.2-3.6,2.5-5.3,3.9
	c-18.8-16.2-47.2-14.1-63.5,4.7c-1.4,1.7-2.7,3.4-3.9,5.3c-22.6-10.4-49.3-0.4-59.7,22.2c-1.3,2.8-2.3,5.7-3,8.7
	c-24.7,2.7-42.5,24.9-39.8,49.6c0.5,4.5,1.6,8.8,3.4,13c-20.7,13.7-26.4,41.7-12.6,62.4c2.1,3.2,4.7,6.1,7.6,8.7
	c-13.6,20.8-7.7,48.7,13.2,62.3c1.9,1.2,3.8,2.3,5.8,3.2c1.9,22.5,20.2,40.1,42.7,41.2c9.9,18.7,31.4,28.1,51.8,22.4
	c16.9,13.9,41.4,13.6,57.9-0.7c16.6,14.3,41,14.6,57.9,0.7c20.4,5.7,42-3.7,51.8-22.4c22.6-1.1,40.8-18.7,42.7-41.2
	c22.6-10.3,32.5-37,22.2-59.6c-0.9-2-2-4-3.2-5.8C473.8,177,479.2,164.8,479.2,151.9L479.2,151.9z"/>
<path class="st2" d="M364.4,140.2l-31.1,7.7c-13.3,3.3-26.9,5-40.6,5c-13.7,0-27.3-1.7-40.6-5l-31.1-7.7
	c-19.4-4.8-37.7,12.1-37.7,34.8c0,21.2,16.2,37.7,34.6,35.4c12.5-1.5,24.9,3.7,32.6,13.7c6.9,8.8,16.9,14.4,28,14.4h28.3
	c11.1,0,21.1-5.6,28-14.4c7.7-10,20.1-15.3,32.6-13.8c18.5,2.4,34.6-14.1,34.6-35.3C402.1,152.2,383.8,135.3,364.4,140.2
	L364.4,140.2z"/>
<path class="st3" d="M233.6,191.7c-4.5,0-8.2-3.7-8.2-8.2l0,0l0,0v-12.2c0.2-4.5,4-8.1,8.5-7.9c4.3,0.2,7.8,3.6,7.9,7.9v12.2
	C241.8,188,238.1,191.7,233.6,191.7z M351.8,191.7c-4.5,0-8.2-3.7-8.2-8.2l0,0l0,0v-12.2c0.2-4.5,4-8.1,8.5-7.9
	c4.3,0.2,7.8,3.6,7.9,7.9v12.2C360,188,356.3,191.7,351.8,191.7z M306.4,215.2c-5,0-9.8-1.7-13.7-4.8c-9.4,7.6-23.2,6-30.7-3.4
	c-3.1-3.9-4.8-8.7-4.8-13.7c0.2-4.5,4-8.1,8.5-7.9c4.3,0.2,7.8,3.6,7.9,7.9c0,3,2.5,5.5,5.5,5.5s5.5-2.5,5.5-5.5
	c0.2-4.5,4-8.1,8.5-7.9c4.3,0.2,7.8,3.6,7.9,7.9c0,3,2.5,5.5,5.5,5.5s5.5-2.5,5.5-5.5c0.2-4.5,4-8.1,8.5-7.9
	c4.3,0.2,7.8,3.6,7.9,7.9C328.3,205.4,318.5,215.2,306.4,215.2C306.4,215.2,306.4,215.2,306.4,215.2L306.4,215.2z"/>
<path class="st3" d="M306.1,184.8l-3.1,3.7c-4.8,5.7-13.3,6.4-18.9,1.7c0,0,0,0,0,0c-0.6-0.5-1.2-1.1-1.6-1.6l-3.1-3.7
	c-1-1.3-0.8-3.2,0.5-4.2c0,0,0,0,0,0c0.5-0.4,1.1-0.6,1.7-0.6h22.3c1.6,0,2.9,1.3,2.9,2.9C306.8,183.6,306.6,184.2,306.1,184.8
	L306.1,184.8z"/>
<path class="st2" d="M98.3,455.1H62.6c-3.6,0-6.5-2.9-6.5-6.5v-75h48.8v75C104.9,452.2,102,455.1,98.3,455.1z M200.1,455.1h-35.7
	c-3.6,0-6.5-2.9-6.5-6.5v-75h48.8v75C206.6,452.2,203.7,455.1,200.1,455.1L200.1,455.1z"/>
<path class="st4" d="M104.4,349c-8,0-15.6,3.4-21,9.3c-12.3-9.8-30.2-7.8-40,4.4c-8,10-8.3,24.2-0.8,34.6c4.2,2.5,8.8,4.1,13.6,4.7
	v5.3c10.8,3.8,22.7,0.8,30.4-7.6c12.3,9.8,30.2,7.9,40-4.4c9.8-12.3,7.9-30.2-4.4-40C117.1,351.1,110.9,348.9,104.4,349L104.4,349z"
	/>
<path class="st0" d="M106.2,333.3c-8.8,0-17.1,3.7-23,10.1c-13.4-10.8-33.1-8.6-43.9,4.8c-10.8,13.4-8.6,33.1,4.8,43.9
	c12.8,10.3,31.4,8.9,42.5-3.3c13.4,10.8,33.1,8.6,43.9-4.8c10.8-13.4,8.6-33.1-4.8-43.9C120.2,335.8,113.3,333.3,106.2,333.3
	L106.2,333.3z"/>
<path class="st4" d="M206.3,349.5c-8,0-15.6,3.3-21,9.2c-12.2-9.8-30.1-7.9-40,4.4c-9.8,12.2-7.9,30.1,4.4,40
	c11.7,9.4,28.7,8.1,38.8-3c12.2,9.8,30.1,7.8,39.9-4.4c9.8-12.2,7.8-30.1-4.4-39.9C219,351.7,212.7,349.5,206.3,349.5L206.3,349.5z"
	/>
<path class="st0" d="M208.2,333.3c-8.8,0-17.1,3.7-23,10.1c-13.4-10.8-33.1-8.6-43.9,4.8c-10.8,13.4-8.6,33.1,4.8,43.9
	c12.8,10.3,31.4,8.9,42.5-3.3c13.4,10.8,33.1,8.6,43.9-4.8c10.8-13.4,8.6-33.1-4.8-43.9C222.2,335.8,215.3,333.3,208.2,333.3
	L208.2,333.3z"/>
<path class="st3" d="M56.1,434.2h48.8v14.4c0,3.6-2.9,6.5-6.5,6.5H62.6c-3.6,0-6.5-2.9-6.5-6.5l0,0l0,0L56.1,434.2z M157.8,434.2
	h48.8v14.4c0,3.6-2.9,6.5-6.5,6.5l0,0h-35.7c-3.6,0-6.5-2.9-6.5-6.5l0,0l0,0V434.2z"/>
</svg>
