<?xml version="1.0" encoding="utf-8"?>
<!-- Generator: Adobe Illustrator 22.0.0, SVG Export Plug-In . SVG Version: 6.00 Build 0)  -->
<svg version="1.1" id="Layer_1" xmlns="http://www.w3.org/2000/svg" xmlns:xlink="http://www.w3.org/1999/xlink" x="0px" y="0px"
	 viewBox="0 0 726.2 413.3" style="enable-background:new 0 0 726.2 413.3;" xml:space="preserve">
<style type="text/css">
	.st0{fill:#CEA86B;}
	.st1{fill:#27292B;}
	.st2{fill:#EDBCB9;}
	.st3{opacity:0.1;enable-background:new    ;}
	.st4{fill:#7D7060;}
	.st5{opacity:0.2;enable-background:new    ;}
	.st6{opacity:5.000000e-02;enable-background:new    ;}
	.st7{fill:#594625;}
	.st8{fill:#FFFFFF;}
	.st9{fill:#1D1D1B;}
	.st10{fill:none;stroke:#1D1D1B;stroke-miterlimit:10;}
	.st11{fill:#030104;}
</style>
<path class="st0" d="M23,256H6.7c0-42.1,42.9-64,85.3-64v16.3C57.7,208.3,23,224.6,23,256z"/>
<path class="st1" d="M29.6,268.1c0-9.2-6.6-16.7-14.8-16.7S0,258.9,0,268.1s6.6,25.3,14.8,25.3S29.6,277.4,29.6,268.1z"/>
<circle class="st2" cx="137.9" cy="321.3" r="52.3"/>
<path class="st3" d="M137.9,269c-28.9,0-52.3,23.4-52.3,52.3c0,10.8,3.3,21.3,9.6,30.2h85.5c16.7-23.6,11.1-56.2-12.5-72.9
	C159.3,272.3,148.7,269,137.9,269z"/>
<path class="st2" d="M133.5,391.4c-4.5,0-8.2-3.6-8.2-8.1v-21.5c0-4.5,3.7-8.1,8.2-8.1c4.5,0,8.1,3.6,8.1,8.1v21.5
	C141.7,387.7,138,391.3,133.5,391.4C133.5,391.4,133.5,391.4,133.5,391.4L133.5,391.4z M159,389.2c-4.5,0-8.1-3.6-8.1-8.1v-21.5
	c0-4.5,3.6-8.1,8.1-8.1c4.5,0,8.2,3.6,8.2,8.1V381C167.2,385.5,163.5,389.2,159,389.2L159,389.2z"/>
<path class="st0" d="M310.6,413.3h-54.5c-3.1,0-5.6-2.5-5.6-5.6V289.7h65.7v118.1C316.2,410.8,313.7,413.3,310.6,413.3z"/>
<path class="st4" d="M310.6,413.3h-54.5c-3.1,0-5.6-2.5-5.6-5.6v-27.8h65.7v27.8C316.2,410.8,313.7,413.3,310.6,413.3z"/>
<path class="st5" d="M310.6,413.3h-54.5c-3.1,0-5.6-2.5-5.6-5.6V289.7h65.7v118.1C316.2,410.8,313.7,413.3,310.6,413.3z"/>
<path class="st0" d="M263.1,171.3H139.3c-49.7,0-90,40.3-90,90v146.4c0,3.1,2.5,5.6,5.6,5.6h54.5c3.1,0,5.6-2.5,5.6-5.6v-68.2
	c4.6,0.8,9.2,1.2,13.9,1.2h74.3v66.9c0,3.1,2.5,5.6,5.6,5.6h54.4c3.1,0,5.6-2.5,5.6-5.6v-68.4c42.8-7.8,73.8-45,73.9-88.5
	C342.6,206.9,307,171.3,263.1,171.3L263.1,171.3z"/>
<path class="st6" d="M263.1,171.3H139.3c-3.7,0-7.4,0.2-11,0.7c10,63.9,79.4,113.4,163.4,113.4c15.5,0,30.9-1.7,46-5.1
	c3.3-9.5,5-19.4,5-29.4C342.7,206.9,307.1,171.3,263.1,171.3L263.1,171.3L263.1,171.3z"/>
<path class="st1" d="M120.9,173.2c-37.4,7.8-65.8,38.4-70.8,76.3c28.7,11.4,61.1-2.7,72.5-31.4C128.3,203.6,127.7,187.3,120.9,173.2
	z"/>
<path class="st4" d="M186.9,12.3v39.9c0,3.6,2.8,6.7,6.4,7c20.8,1.8,40.5-9.6,49.4-28.5c1.6-3.3,0.3-7.3-2.9-9.1L205.3,1.6
	c-5.9-3.4-13.4-1.4-16.8,4.5C187.4,8,186.9,10.1,186.9,12.3L186.9,12.3z M420.4,12.3v39.9c0,3.7-2.8,6.7-6.5,7
	c-20.8,1.8-40.5-9.6-49.4-28.5c-1.6-3.3-0.3-7.3,2.9-9.1L402,1.6c5.9-3.4,13.4-1.3,16.8,4.6C419.8,8.1,420.4,10.2,420.4,12.3
	L420.4,12.3z"/>
<path class="st7" d="M187.7,68.7l-36.8,9.2c-23.2,5.8-42.7,21.4-53.4,42.8c-5.3,10.7-0.9,23.6,9.7,28.9c2.6,1.3,5.5,2.1,8.4,2.2
	c21.9,1.2,42.1-11.5,50.6-31.7L187.7,68.7z M419.5,68.7l36.8,9.2c23.2,5.8,42.7,21.4,53.4,42.8c5.3,10.7,0.9,23.6-9.7,28.9
	c-2.6,1.3-5.5,2.1-8.4,2.2c-21.9,1.2-42.2-11.5-50.6-31.8L419.5,68.7z"/>
<ellipse class="st0" cx="303.6" cy="138.8" rx="164.7" ry="129.3"/>
<path class="st1" d="M227.8,115.4c-4.5,0-8.1-3.6-8.1-8.2c-0.1-2.5-2.3-4.5-4.8-4.3c-2.4,0.1-4.2,2-4.3,4.3c0.2,4.5-3.3,8.3-7.8,8.4
	c-4.5,0.2-8.3-3.3-8.4-7.8c0,0,0,0,0,0c0-0.2,0-0.4,0-0.6c0-11.5,9.3-20.9,20.8-20.9s20.9,9.3,20.9,20.8c0,0,0,0,0,0
	C236,111.7,232.3,115.4,227.8,115.4L227.8,115.4z M404.8,115.4c-4.5,0-8.1-3.6-8.1-8.2c-0.1-2.5-2.3-4.5-4.8-4.3
	c-2.4,0.1-4.2,2-4.3,4.3c0,4.5-3.7,8.1-8.2,8.1c-4.5,0-8.1-3.6-8.1-8.1c0-11.5,9.3-20.9,20.9-20.9s20.9,9.3,20.9,20.9
	C413,111.7,409.3,115.4,404.8,115.4C404.8,115.4,404.8,115.4,404.8,115.4L404.8,115.4z M293.3,9.7c-43.3,2.1-82.1,17.4-110,40.8
	c20.7,26.9,59.2,31.9,86,11.2c15.1-11.6,23.9-29.6,24-48.6C293.4,12,293.4,10.8,293.3,9.7z"/>
<path class="st2" d="M303.6,114.7c-71.1,0-130.7,35.3-146.8,82.8c27.2,41.9,82.7,70.6,146.8,70.6s119.5-28.7,146.8-70.6
	C434.3,150,374.7,114.7,303.6,114.7z"/>
<ellipse class="st5" cx="259.8" cy="190" rx="19.9" ry="34"/>
<ellipse class="st5" cx="347.4" cy="190" rx="19.9" ry="34"/>
<path class="st4" d="M263.2,413.3h-54.5c-3.1,0-5.6-2.5-5.6-5.6v-27.8h65.7v27.8C268.8,410.8,266.3,413.3,263.2,413.3z M109.3,413.3
	H54.9c-3.1,0-5.6-2.5-5.6-5.6v-27.8H115v27.8C115,410.8,112.5,413.3,109.3,413.3L109.3,413.3z"/>
<circle class="st1" cx="187.6" cy="295.4" r="19.6"/>
<g id="_Группа_">
	<path class="st8" d="M622.6,242.6c-11.9,0-23.6-2-34.8-6c14.2-8.8,14.2-9.5,14.2-11.6c-0.1-1.3-0.7-2.4-1.7-3.2
		c-1.5-0.9-3.5-0.4-4.5,1.1c-2.1,1.4-10,7-17.2,11.6c-7.9,4.7-16.4,8.4-25.2,11.2c-8.6,2.8-16.5,4.6-22.4,6
		c7.6-13,10.7-31.6,11.7-46.4c-0.1-0.9-0.3-1.7-0.7-2.5c-10.2-14-15.8-30.8-15.8-48.1c0-48.5,43.4-87.8,96.5-87.8
		s96.5,39.3,96.5,87.8S675.7,242.6,622.6,242.6z"/>
	<path class="st9" d="M587.8,236.6c11.2,4,22.9,6,34.8,6c53.1,0,96.5-39.4,96.5-87.8s-43.4-87.8-96.5-87.8s-96.5,39.3-96.5,87.8
		c0.1,17.3,5.6,34.2,15.8,48.1c0.4,0.7,0.7,1.6,0.7,2.5c-1,14.8-4.1,33.4-11.7,46.4c7.6-1.5,15.1-3.5,22.4-6
		c8.8-2.8,17.2-6.6,25.2-11.2c6-3.5,11.7-7.4,17.2-11.6c1-1.4,3-1.9,4.5-1c1.1,0.7,1.8,1.8,1.8,3.1C602,227.1,602,227.8,587.8,236.6
		z M535.8,206c-10.8-14.9-16.6-32.9-16.5-51.3c0-52.3,46.5-94.9,103.4-94.9S726,102.4,726,154.7s-46.5,94.9-103.4,94.9
		c-14.4,0-28.6-2.7-42-8.1c-23.4,13.7-55.8,18.6-57.2,18.6h-0.3c-1.3,0-2.5-0.7-3.1-1.8c-0.7-1.4-0.4-3.1,0.7-4.2
		C528.2,246.1,533.8,228.8,535.8,206L535.8,206z"/>
	<path class="st10" d="M622.7,59.8c-56.8,0-103.4,42.5-103.4,94.9c-0.1,18.4,5.7,36.4,16.5,51.3c-2.1,22.8-7.6,40.1-15.5,48.1
		c-1.1,1.1-1.4,2.8-0.7,4.2c0.7,1.1,1.8,1.8,3.1,1.8h0.3c1.4-0.4,33.8-4.9,57.2-18.6c13.3,5.5,27.6,8.2,42,8.1
		c56.8,0,103.4-42.5,103.4-94.9S679.5,59.8,622.7,59.8L622.7,59.8z"/>
	<path class="st10" d="M622.6,242.6c-11.9,0-23.6-2-34.8-6c14.2-8.8,14.2-9.5,14.2-11.6c-0.1-1.3-0.7-2.4-1.7-3.2
		c-1.5-0.9-3.5-0.4-4.5,1.1c-2.1,1.4-10,7-17.2,11.6c-7.9,4.7-16.4,8.4-25.2,11.2c-8.6,2.8-16.5,4.6-22.4,6
		c7.6-13,10.7-31.6,11.7-46.4c-0.1-0.9-0.3-1.7-0.7-2.5c-10.2-14-15.8-30.8-15.8-48.1c0-48.5,43.4-87.8,96.5-87.8
		s96.5,39.3,96.5,87.8S675.7,242.6,622.6,242.6z"/>
</g>
<g id="c75_volume">
	<path class="st11" d="M581.6,129.8h-17.5v40.4H582l33.8,25.3c0,0,6.2,5.3,6.2,0v-91.7c0-4.2-5.5,0-5.5,0L581.6,129.8z M640.6,121.7
		L640.6,121.7c-1.9-1.8-4.8-1.8-6.5,0c0,0,0,0,0,0c-1.8,1.9-1.8,4.8,0,6.7c11.5,12,11.5,30.9,0,42.9c-1.7,1.9-1.7,4.8,0,6.7
		c0.8,0.9,1.9,1.4,3.1,1.4c1.2,0.1,2.4-0.5,3.1-1.4c7.3-7.5,11.4-17.6,11.4-28.1C651.9,139.3,647.9,129.1,640.6,121.7L640.6,121.7z"
		/>
	<path class="st11" d="M652.9,107.3l-0.1-0.1c-1.8-1.7-4.7-1.7-6.4,0.1c-1.8,1.9-1.8,4.8,0,6.7c9.4,9.7,14.6,22.7,14.8,36.2
		c0.1,13.6-5.2,26.6-14.8,36.2c-1.7,1.9-1.7,4.8,0,6.7c0.8,0.9,1.9,1.4,3.1,1.4c1.2,0.1,2.4-0.5,3.1-1.4
		c11.2-11.5,17.4-26.9,17.3-42.9C670.2,134.2,664.1,118.7,652.9,107.3z"/>
	<path class="st11" d="M668.1,92.2L668.1,92.2c-1.9-1.9-4.8-1.8-6.5,0c0,0,0,0,0,0c-1.8,1.9-1.8,4.8,0,6.7
		c27.6,28.4,27.6,73.5,0,101.9c-1.7,1.9-1.7,4.8,0,6.7c0.8,0.9,1.9,1.4,3.1,1.4c1.2,0.1,2.4-0.5,3.1-1.4
		C698.9,175.4,699.1,124.4,668.1,92.2z"/>
</g>
</svg>
