<svg id="Layer_1" data-name="Layer 1" xmlns="http://www.w3.org/2000/svg" viewBox="0 0 683.51 512">
  <defs>
    <style>
      .cls-1{fill:#e8e8e8}.cls-2{opacity:.03}.cls-2,.cls-5{isolation:isolate}.cls-3{fill:#f4b759}.cls-4{fill:#f7da70}.cls-5{opacity:.05}.cls-6{fill:#d4624e}.cls-10{fill:none;stroke:#1d1d1b;stroke-miterlimit:10}.cls-11{fill:#030104}
    </style>
  </defs>
  <path class="cls-1" d="M555.81 323.29l13-66.2A29.33 29.33 0 0 1 603.27 234a29.3 29.3 0 0 1 23.33 24.28 29.37 29.37 0 0 1 35.4 42.3 29.31 29.31 0 0 1-3.29 58.42l-67.47.33c-8.28 0-37.51-25.5-35.43-36z" transform="translate(-4.42)"/>
  <path class="cls-2" d="M555.81 323.29l6.89-35.08c30.41 15.55 51.53 41.27 55.39 71l-26.85.13c-8.28 0-37.51-25.51-35.43-36z" transform="translate(-4.42)"/>
  <path class="cls-3" d="M397.31 482.59h33.14v-73.5h29.41v73.5h11a14.7 14.7 0 0 1 14.7 14.7A14.7 14.7 0 0 1 470.87 512h-73.56a14.7 14.7 0 0 1-14.7-14.7 14.69 14.69 0 0 1 14.68-14.7z" transform="translate(-4.42)"/>
  <path class="cls-4" d="M458 482.59h33.14v-73.5h29.41v73.5h10.94a14.7 14.7 0 0 1 14.71 14.69A14.7 14.7 0 0 1 531.53 512H458a14.71 14.71 0 1 1 0-29.41z" transform="translate(-4.42)"/>
  <path class="cls-5" d="M520.57 409.09v44.49a174.1 174.1 0 0 1-29.41 5.55v-50zm-60.71 0v50.71a159.68 159.68 0 0 1-29.41-4.39v-46.32z" transform="translate(-4.42)"/>
  <path class="cls-1" d="M359.35 359.26c0 53.33 43.65 87.82 111.91 87.82s123.61-34.49 123.61-87.82-55.34-96.55-123.61-96.55-111.91 43.23-111.91 96.55z" transform="translate(-4.42)"/>
  <path class="cls-2" d="M471.26 262.71c25.5 0 49.2 6 68.88 16.37-24.95 41-76.12 69-142.75 69a219.42 219.42 0 0 1-37-3.06c7.11-46.58 48.82-82.31 110.87-82.31z" transform="translate(-4.42)"/>
  <path class="cls-6" d="M369 0a23.78 23.78 0 0 1 20.56 11.86A23.75 23.75 0 0 1 433 19.33a23.79 23.79 0 0 1 25.71 40l-45.59 30.26c-4.61 3.06-49.32.14-51.32-6.54l-15.69-52.43A23.79 23.79 0 0 1 369 0z" transform="translate(-4.42)"/>
  <path class="cls-1" d="M224 198.1c0 71.16 63.83 128.9 159.53 128.9s159.54-57.7 159.54-128.86-63.82-128.9-159.53-128.9S224 126.93 224 198.1z" transform="translate(-4.42)"/>
  <path d="M397.74 163.46a8.16 8.16 0 0 0 8.16-8.16v-12.15a8.17 8.17 0 1 0-16.33-.57 5.42 5.42 0 0 0 0 .57v12.15a8.16 8.16 0 0 0 8.16 8.16zm-123.61 0a8.16 8.16 0 0 0 8.16-8.16v-12.15a8.16 8.16 0 0 0-16.32 0v12.15a8.16 8.16 0 0 0 8.16 8.16z" transform="translate(-4.42)" fill="#4a5058"/>
  <path class="cls-6" d="M315.1 252.7l8.12-27.11a8.15 8.15 0 0 1 7.82-5.82h16.32a8.16 8.16 0 0 1 7.82 5.82l8.11 27.11a12.3 12.3 0 1 1-23.58 7 12.06 12.06 0 0 1-.51-3.48 12.31 12.31 0 1 1-24.1-3.53z" transform="translate(-4.42)"/>
  <path class="cls-3" d="M360.73 200.46v8.71a18.36 18.36 0 0 1-18.36 18.36h-13.95a28.14 28.14 0 0 1-24.78-14.81l-6.59-12.26z" transform="translate(-4.42)"/>
  <path class="cls-4" d="M288.49 206.56h72.24v-19.64a24.37 24.37 0 0 0-24.36-24.37h-12.29a39.8 39.8 0 0 0-39.8 39.8 4.23 4.23 0 0 0 4.21 4.21z" transform="translate(-4.42)"/>
  <path class="cls-5" d="M484.54 401.37h13.91A74.4 74.4 0 0 0 564 362.3a14.85 14.85 0 0 0-13.07-21.9h-66.39a30.48 30.48 0 0 0-30.48 30.48 30.49 30.49 0 0 0 30.48 30.49z" transform="translate(-4.42)"/>
  <g id="_Группа_" data-name="Группа">
    <path d="M11.47 201.29c0-48.49 43.41-87.84 96.48-87.84s96.47 39.35 96.47 87.84a81.84 81.84 0 0 1-15.85 48.14 6.56 6.56 0 0 0-.69 2.46c1 14.75 4.14 33.38 11.72 46.38-5.86-1.41-13.78-3.17-22.4-6a124.76 124.76 0 0 1-25.15-11.24c-7.24-4.57-15.16-10.19-17.23-11.6a3.41 3.41 0 0 0-4.48-1.05 4.2 4.2 0 0 0-1.72 3.16c0 2.11 0 2.81 14.13 11.6a105.12 105.12 0 0 1-34.8 6c-53.07-.01-96.48-39.36-96.48-87.85z" transform="translate(-4.42)" fill="#fff"/>
    <path d="M128.62 271.56a3.71 3.71 0 0 1 1.72-3.16 3.41 3.41 0 0 1 4.48 1.05 182.11 182.11 0 0 0 17.23 11.6 124.76 124.76 0 0 0 25.15 11.24 179.53 179.53 0 0 0 22.4 6c-7.58-13-10.68-31.63-11.72-46.38a5.14 5.14 0 0 1 .69-2.46 81.84 81.84 0 0 0 15.85-48.14c0-48.49-43.41-87.84-96.47-87.84s-96.48 39.33-96.48 87.82 43.41 87.84 96.53 87.84a105.12 105.12 0 0 0 34.8-6c-14.18-8.76-14.18-9.46-14.18-11.57zm81.31 29.17a3.75 3.75 0 0 1 .69 4.21 3.58 3.58 0 0 1-3.1 1.76h-.34c-1.38 0-33.77-4.92-57.2-18.62a112.22 112.22 0 0 1-42 8.08c-56.86 0-103.37-42.52-103.37-94.87S51.09 106.42 108 106.42s103.36 42.52 103.36 94.87a86.57 86.57 0 0 1-16.54 51.3c2.02 22.84 7.53 40.05 15.11 48.14z" transform="translate(-4.42)" fill="#1d1d1b"/>
    <path class="cls-10" d="M4.92 201.29c0 52.35 46.52 94.87 103.37 94.87a108.14 108.14 0 0 0 42-8.08c23.43 13.7 55.81 18.27 57.19 18.62h.35a3.59 3.59 0 0 0 3.1-1.76 3.77 3.77 0 0 0-.69-4.21c-7.93-8.09-13.44-25.3-15.51-48.14a86.57 86.57 0 0 0 16.54-51.3c0-52.35-46.51-94.87-103.36-94.87S4.92 148.94 4.92 201.29z" transform="translate(-4.42)"/>
    <path class="cls-10" d="M11.47 201.29c0-48.49 43.41-87.84 96.48-87.84s96.47 39.35 96.47 87.84a81.84 81.84 0 0 1-15.85 48.14 6.56 6.56 0 0 0-.69 2.46c1 14.75 4.14 33.38 11.72 46.38-5.86-1.41-13.78-3.17-22.4-6a124.76 124.76 0 0 1-25.15-11.24c-7.24-4.57-15.16-10.19-17.23-11.6a3.41 3.41 0 0 0-4.48-1.05 4.2 4.2 0 0 0-1.72 3.16c0 2.11 0 2.81 14.13 11.6a105.12 105.12 0 0 1-34.8 6c-53.07-.01-96.48-39.36-96.48-87.85z" transform="translate(-4.42)"/>
  </g>
  <g id="c75_volume" data-name="c75 volume">
    <path class="cls-11" d="M114.15 150.34s-5.51-4.22-5.51 0v91.71c0 5.27 6.2 0 6.2 0l33.76-25.3h17.92v-40.41H149zM79 196.37a40.08 40.08 0 0 0 11.37 28.11 3.76 3.76 0 0 0 3.1 1.41 4.22 4.22 0 0 0 3.11-1.41 5 5 0 0 0 0-6.68 31 31 0 0 1 0-42.86 4.81 4.81 0 0 0 0-6.68 4.58 4.58 0 0 0-6.55 0A38.29 38.29 0 0 0 79 196.37z" transform="translate(-4.42)"/>
    <path class="cls-11" d="M60.74 196.72A60.7 60.7 0 0 0 78 239.59a3.72 3.72 0 0 0 3.1 1.4 4.15 4.15 0 0 0 3.1-1.4 5 5 0 0 0 0-6.68 50.72 50.72 0 0 1-14.81-36.19 53.22 53.22 0 0 1 14.81-36.19 4.78 4.78 0 0 0 0-6.67 4.55 4.55 0 0 0-6.54 0 59.16 59.16 0 0 0-16.92 42.86z" transform="translate(-4.42)"/>
    <path class="cls-11" d="M39.38 196.37A82.55 82.55 0 0 0 62.81 254a3.72 3.72 0 0 0 3.1 1.41A4.13 4.13 0 0 0 69 254a4.93 4.93 0 0 0 0-6.67 73.13 73.13 0 0 1 0-101.9 4.78 4.78 0 0 0 0-6.67 4.56 4.56 0 0 0-6.55 0 82.23 82.23 0 0 0-23.07 57.61z" transform="translate(-4.42)"/>
  </g>
</svg>
