<?xml version="1.0" encoding="utf-8"?>
<!-- Generator: Adobe Illustrator 22.0.0, SVG Export Plug-In . SVG Version: 6.00 Build 0)  -->
<svg version="1.1" id="Layer_1" xmlns="http://www.w3.org/2000/svg" xmlns:xlink="http://www.w3.org/1999/xlink" x="0px" y="0px"
	 viewBox="0 0 683.5 512" style="enable-background:new 0 0 683.5 512;" xml:space="preserve">
<style type="text/css">
	.st0{fill:#E8E8E8;}
	.st1{opacity:3.000000e-02;enable-background:new    ;}
	.st2{fill:#F4B759;}
	.st3{fill:#F7DA70;}
	.st4{opacity:5.000000e-02;enable-background:new    ;}
	.st5{fill:#D4624E;}
	.st6{fill:#4A5058;}
</style>
<title>chicken-chat</title>
<path class="st0" d="M551.4,323.3l13-66.2c3.1-15.9,18.6-26.2,34.5-23.1c0,0,0,0,0,0l0,0c12.1,2.4,21.4,12.1,23.3,24.3
	c15.3-5.5,32.1,2.4,37.6,17.7c2.9,8.1,2.1,17.1-2.2,24.6c16.1,1.9,27.6,16.4,25.7,32.5c-1.7,14.7-14.2,25.8-29,25.9l-67.5,0.3
	C578.5,359.3,549.3,333.8,551.4,323.3L551.4,323.3z"/>
<path class="st1" d="M551.4,323.3l6.9-35.1c30.4,15.5,51.5,41.3,55.4,71l-26.8,0.1C578.5,359.3,549.3,333.8,551.4,323.3L551.4,323.3
	z"/>
<path class="st2" d="M392.9,482.6H426v-73.5h29.4v73.5h11c8.1,0,14.7,6.6,14.7,14.7v0l0,0c0,8.1-6.6,14.7-14.7,14.7h0h-73.6
	c-8.1,0-14.7-6.6-14.7-14.7v0l0,0C378.2,489.2,384.8,482.6,392.9,482.6L392.9,482.6L392.9,482.6z"/>
<path class="st3" d="M453.6,482.6h33.1v-73.5h29.4v73.5h10.9c8.1,0,14.7,6.6,14.7,14.7v0l0,0c0,8.1-6.6,14.7-14.7,14.7h-73.5
	c-8.1,0.2-14.9-6.2-15.1-14.3c-0.2-8.1,6.2-14.9,14.3-15.1C453.1,482.6,453.3,482.6,453.6,482.6z"/>
<path class="st4" d="M516.2,409.1v44.5c-9.6,2.7-19.5,4.5-29.4,5.5v-50L516.2,409.1z M455.4,409.1v50.7c-9.9-0.5-19.8-2-29.4-4.4
	v-46.3H455.4z"/>
<path class="st0" d="M354.9,359.3c0,53.3,43.6,87.8,111.9,87.8s123.6-34.5,123.6-87.8s-55.3-96.5-123.6-96.5
	S354.9,305.9,354.9,359.3z"/>
<path class="st1" d="M466.8,262.7c25.5,0,49.2,6,68.9,16.4c-25,41-76.1,69-142.8,69c-12.4,0-24.8-1-37-3.1
	C363.1,298.4,404.8,262.7,466.8,262.7z"/>
<path class="st5" d="M364.6,0c8.5,0,16.3,4.5,20.6,11.9c6.9-11.2,21.5-14.6,32.7-7.8c5.5,3.4,9.4,8.9,10.8,15.2
	c11.3-6.7,25.9-3,32.6,8.3c6.4,10.7,3.4,24.6-6.9,31.7l-45.6,30.3c-4.6,3.1-49.3,0.1-51.3-6.5l-15.7-52.4
	c-3.8-12.6,3.4-25.8,16-29.6C359.9,0.3,362.2,0,364.6,0z"/>
<path class="st0" d="M219.6,198.1c0,71.2,63.8,128.9,159.5,128.9s159.5-57.7,159.5-128.9S474.8,69.2,379.1,69.2
	S219.6,126.9,219.6,198.1z"/>
<path class="st6" d="M393.3,163.5c4.5,0,8.2-3.7,8.2-8.2c0,0,0,0,0,0l0,0v-12.2c0.2-4.5-3.3-8.3-7.9-8.5c-4.5-0.2-8.3,3.3-8.5,7.9
	c0,0,0,0,0,0c0,0.2,0,0.4,0,0.6v12.2C385.1,159.8,388.8,163.5,393.3,163.5L393.3,163.5L393.3,163.5z M269.7,163.5
	c4.5,0,8.2-3.7,8.2-8.2c0,0,0,0,0,0l0,0v-12.2c0-4.5-3.7-8.2-8.2-8.2s-8.2,3.7-8.2,8.2v12.2C261.5,159.8,265.2,163.5,269.7,163.5
	L269.7,163.5z"/>
<path class="st5" d="M310.7,252.7l8.1-27.1c1-3.5,4.2-5.8,7.8-5.8h16.3c3.6,0,6.8,2.4,7.8,5.8l8.1,27.1c2,6.5-1.6,13.4-8.1,15.4
	c-6.5,2-13.4-1.6-15.4-8.1c0-0.1-0.1-0.2-0.1-0.4c-0.3-1.1-0.5-2.3-0.5-3.5c0,6.8-5.5,12.3-12.3,12.3c-6.8,0-12.3-5.5-12.3-12.3
	C310.2,255,310.3,253.8,310.7,252.7L310.7,252.7z"/>
<path class="st2" d="M356.3,200.5v8.7c0,10.1-8.2,18.4-18.4,18.4l0,0H324c-10.4,0-19.9-5.7-24.8-14.8l-6.6-12.3L356.3,200.5z"/>
<path class="st3" d="M284.1,206.6h72.2v-19.6c0-13.5-10.9-24.4-24.4-24.4h-12.3c-22,0-39.8,17.8-39.8,39.8l0,0
	C279.9,204.7,281.7,206.5,284.1,206.6L284.1,206.6z"/>
<path class="st4" d="M480.1,401.4H494c27.4,0,52.6-15,65.6-39.1c3.9-7.2,1.2-16.2-6-20.1c-2.2-1.2-4.6-1.8-7.1-1.8h-66.4
	c-16.8,0-30.5,13.6-30.5,30.5c0,0,0,0,0,0l0,0C449.6,387.7,463.3,401.4,480.1,401.4z"/>
</svg>
