<svg data-name="Capa 1" xmlns="http://www.w3.org/2000/svg" viewBox="0 0 512 512">
  <path d="M159.65 486.88l-16-74.24a16 16 0 1 0-31.27 6.75l8.29 38.43C65 419 32 357 32 288a16 16 0 0 0-32 0 240.6 240.6 0 0 0 92.67 189.31L47 480a16 16 0 0 0 1 32h1l96-5.76a15.94 15.94 0 0 0 14.69-19.33zM419.33 34.69L465 32a16 16 0 0 0-1-32h-1l-96 5.79a15.94 15.94 0 0 0-14.69 19.33l16 74.24a16 16 0 1 0 31.27-6.75l-8.26-38.43C447 93 480 155 480 224a16 16 0 0 0 32 0 240.6 240.6 0 0 0-92.67-189.31zM459.65 278.62L233.38 52.35a32 32 0 0 0-45.25 0L52.35 188.13a32 32 0 0 0 0 45.25l226.27 226.27a32 32 0 0 0 45.25 0l135.78-135.78a32 32 0 0 0 0-45.25zm-181 135.78l-181-181L233.38 97.6l181 181z"/>
</svg>
