<svg id="Слой_1" data-name="Слой 1" xmlns="http://www.w3.org/2000/svg" viewBox="0 0 204.37 224.68">
  <defs>
    <style>
      .cls-1{fill:#666}
    </style>
  </defs>
  <ellipse class="cls-1" cx="44.4" cy="183.29" rx="39.5" ry="24.7"/>
  <ellipse class="cls-1" cx="146.8" cy="154.19" rx="39.8" ry="23.2"/>
  <path class="cls-1" d="M106.7 234.4a12 12 0 0 1-12-12V110.7a12 12 0 0 1 12-12 12 12 0 0 1 12 12v111.7a12 12 0 0 1-12 12zM209.6 205.3a12 12 0 0 1-12-12V81.6a12 12 0 0 1 12-12 12 12 0 0 1 12 12v111.7a12 12 0 0 1-12 12z" transform="translate(-34.8 -41.11)"/>
  <path class="cls-1" d="M211 103.7l-98.5 24.8a12.07 12.07 0 0 1-14.6-8.7l-2.6-10.2A12.07 12.07 0 0 1 104 95l98.5-24.8a12.07 12.07 0 0 1 14.6 8.7l2.6 10.2a12.12 12.12 0 0 1-8.7 14.6z" transform="translate(-34.8 -41.11)"/>
  <path transform="rotate(-48 73.405 171.969)" fill="#333" d="M-7.66 146.2h289.3v14.5H-7.66z"/>
</svg>
